G04*
G04 #@! TF.GenerationSoftware,Altium Limited,Altium Designer,19.0.15 (446)*
G04*
G04 Layer_Color=8388736*
%FSLAX44Y44*%
%MOMM*%
G71*
G01*
G75*
%ADD20C,0.0000*%
%ADD21R,1.7000X2.2000*%
%ADD22R,1.5000X1.1000*%
%ADD23R,0.9000X1.5000*%
%ADD24R,1.5000X0.9000*%
%ADD25R,1.9000X1.3000*%
%ADD26R,1.4000X2.2000*%
%ADD27C,1.1000*%
%ADD28R,1.7300X1.7300*%
%ADD29C,1.7300*%
%ADD30C,1.1500*%
%ADD31C,2.2500*%
%ADD32O,1.4000X2.2000*%
%ADD33R,1.6980X1.6980*%
%ADD34C,1.6980*%
%ADD35C,1.8200*%
%ADD36C,0.8000*%
D20*
X557976Y540766D02*
G03*
X557976Y540766I-8611J0D01*
G01*
X532575D02*
G03*
X532575Y540766I-8611J0D01*
G01*
X507175D02*
G03*
X507175Y540766I-8611J0D01*
G01*
X481776D02*
G03*
X481776Y540766I-8611J0D01*
G01*
X558013Y506476D02*
G03*
X558013Y506476I-8611J0D01*
G01*
X532613D02*
G03*
X532613Y506476I-8611J0D01*
G01*
X507213D02*
G03*
X507213Y506476I-8611J0D01*
G01*
X481813D02*
G03*
X481813Y506476I-8611J0D01*
G01*
D21*
X568198Y307996D02*
D03*
Y389996D02*
D03*
X619506Y307488D02*
D03*
Y389488D02*
D03*
D22*
X530098Y358546D02*
D03*
Y377546D02*
D03*
D23*
X504038Y245364D02*
D03*
X485038D02*
D03*
X572618D02*
D03*
X553618D02*
D03*
X435458D02*
D03*
X416458D02*
D03*
X622910Y278130D02*
D03*
X603910D02*
D03*
X447294Y452120D02*
D03*
X466294D02*
D03*
X502158D02*
D03*
X483158D02*
D03*
D24*
X530098Y341224D02*
D03*
Y322224D02*
D03*
D25*
X501560Y400793D02*
D03*
Y380793D02*
D03*
Y360793D02*
D03*
Y340793D02*
D03*
Y320793D02*
D03*
Y300793D02*
D03*
D26*
X346560Y425793D02*
D03*
X366560D02*
D03*
X386560D02*
D03*
X406560D02*
D03*
X426560D02*
D03*
X446560D02*
D03*
X466560D02*
D03*
X486560D02*
D03*
Y275793D02*
D03*
X466560D02*
D03*
X446560D02*
D03*
X426560D02*
D03*
X406560D02*
D03*
X386560D02*
D03*
X366560D02*
D03*
X346560D02*
D03*
X467868Y476504D02*
D03*
D27*
X401306Y558800D02*
D03*
X431306D02*
D03*
D28*
X429006Y476504D02*
D03*
D29*
X403606D02*
D03*
D30*
X355346Y237998D02*
D03*
X368046D02*
D03*
D31*
X375263Y520793D02*
D03*
X615263D02*
D03*
Y180793D02*
D03*
X375263D02*
D03*
D32*
X518668Y476504D02*
D03*
X493268D02*
D03*
D33*
X517800Y222238D02*
D03*
X586380Y222492D02*
D03*
X449220Y222238D02*
D03*
D34*
X472800D02*
D03*
Y157238D02*
D03*
X517800D02*
D03*
X541380Y222492D02*
D03*
Y157492D02*
D03*
X586380D02*
D03*
X404220Y222238D02*
D03*
Y157238D02*
D03*
X449220D02*
D03*
D35*
X549365Y540766D02*
D03*
X523965D02*
D03*
X498565D02*
D03*
X473165D02*
D03*
X549402Y506476D02*
D03*
X524002D02*
D03*
X498602D02*
D03*
X473202D02*
D03*
D36*
X391414Y322580D02*
D03*
X516636Y366776D02*
D03*
X604012Y397764D02*
D03*
X517144Y322580D02*
D03*
X501952Y275539D02*
D03*
X538226Y245618D02*
D03*
X469646D02*
D03*
X401066D02*
D03*
X406560Y403136D02*
D03*
X386560D02*
D03*
X366268Y402844D02*
D03*
X346202Y402590D02*
D03*
X603250Y354330D02*
D03*
M02*
