G04*
G04 #@! TF.GenerationSoftware,Altium Limited,Altium Designer,19.0.15 (446)*
G04*
G04 Layer_Color=65535*
%FSLAX44Y44*%
%MOMM*%
G71*
G01*
G75*
%ADD10C,0.3000*%
%ADD11C,0.1270*%
%ADD12C,0.2000*%
%ADD13C,0.1999*%
G36*
X507250Y560500D02*
X487250D01*
Y570500D01*
X507250D01*
Y560500D01*
D02*
G37*
G36*
X533750D02*
X513750D01*
Y570500D01*
X533750D01*
Y560500D01*
D02*
G37*
G36*
X560750D02*
X540750D01*
Y570500D01*
X560750D01*
Y560500D01*
D02*
G37*
G36*
X484750Y560250D02*
X459750D01*
Y570250D01*
X484750D01*
Y560250D01*
D02*
G37*
G36*
X429000Y491250D02*
X404000D01*
Y501250D01*
X429000D01*
Y491250D01*
D02*
G37*
G36*
X584000Y411500D02*
X554000D01*
Y421500D01*
X584000D01*
Y411500D01*
D02*
G37*
G36*
X634006D02*
X604006D01*
Y421500D01*
X634006D01*
Y411500D01*
D02*
G37*
G36*
X538500Y450500D02*
X513500D01*
Y460500D01*
X538500D01*
Y450500D01*
D02*
G37*
G36*
X446910Y534416D02*
X445362D01*
Y544269D01*
X445344Y544250D01*
X445252Y544178D01*
X445143Y544068D01*
X444961Y543941D01*
X444761Y543777D01*
X444506Y543595D01*
X444214Y543394D01*
X443887Y543194D01*
X443868D01*
X443850Y543176D01*
X443741Y543103D01*
X443559Y543012D01*
X443340Y542903D01*
X443085Y542775D01*
X442812Y542648D01*
X442539Y542520D01*
X442266Y542411D01*
Y543904D01*
X442284D01*
X442320Y543941D01*
X442393Y543959D01*
X442484Y544014D01*
X442594Y544068D01*
X442721Y544141D01*
X443031Y544323D01*
X443395Y544524D01*
X443759Y544779D01*
X444142Y545070D01*
X444524Y545379D01*
X444542Y545398D01*
X444561Y545416D01*
X444615Y545471D01*
X444688Y545525D01*
X444852Y545707D01*
X445070Y545926D01*
X445289Y546181D01*
X445526Y546472D01*
X445726Y546764D01*
X445908Y547073D01*
X446910D01*
Y534416D01*
D02*
G37*
G36*
X446947Y500126D02*
X445399D01*
Y509979D01*
X445381Y509960D01*
X445290Y509888D01*
X445180Y509778D01*
X444998Y509651D01*
X444798Y509487D01*
X444543Y509305D01*
X444252Y509104D01*
X443924Y508904D01*
X443905D01*
X443887Y508886D01*
X443778Y508813D01*
X443596Y508722D01*
X443377Y508613D01*
X443122Y508485D01*
X442849Y508358D01*
X442576Y508230D01*
X442303Y508121D01*
Y509614D01*
X442321D01*
X442357Y509651D01*
X442430Y509669D01*
X442521Y509724D01*
X442631Y509778D01*
X442758Y509851D01*
X443068Y510033D01*
X443432Y510233D01*
X443796Y510489D01*
X444179Y510780D01*
X444561Y511090D01*
X444579Y511108D01*
X444598Y511126D01*
X444652Y511181D01*
X444725Y511235D01*
X444889Y511417D01*
X445107Y511636D01*
X445326Y511891D01*
X445563Y512182D01*
X445763Y512474D01*
X445945Y512783D01*
X446947D01*
Y500126D01*
D02*
G37*
%LPC*%
G36*
X493718Y568810D02*
X487792D01*
X490815D01*
X490649Y568791D01*
X490325Y568745D01*
X490177Y568717D01*
X490038Y568680D01*
X489909Y568653D01*
X489789Y568616D01*
X489678Y568579D01*
X489585Y568542D01*
X489502Y568505D01*
X489428Y568477D01*
X489373Y568449D01*
X489336Y568431D01*
X489308Y568422D01*
X489299Y568412D01*
X489169Y568329D01*
X489040Y568246D01*
X488818Y568052D01*
X488624Y567858D01*
X488467Y567654D01*
X488337Y567478D01*
X488291Y567405D01*
X488254Y567331D01*
X488217Y567275D01*
X488199Y567238D01*
X488189Y567210D01*
X488180Y567201D01*
X488051Y566896D01*
X487958Y566591D01*
X487884Y566295D01*
X487866Y566156D01*
X487838Y566027D01*
X487829Y565907D01*
X487810Y565805D01*
X487801Y565703D01*
Y565620D01*
X487792Y565555D01*
Y565463D01*
X487810Y565121D01*
X487856Y564797D01*
X487884Y564649D01*
X487912Y564511D01*
X487949Y564372D01*
X487986Y564252D01*
X488023Y564141D01*
X488060Y564048D01*
X488088Y563956D01*
X488115Y563891D01*
X488143Y563826D01*
X488162Y563790D01*
X488180Y563762D01*
Y563753D01*
X488346Y563484D01*
X488531Y563253D01*
X488726Y563050D01*
X488910Y562883D01*
X489086Y562754D01*
X489151Y562708D01*
X489216Y562662D01*
X489271Y562634D01*
X489308Y562606D01*
X489336Y562597D01*
X489345Y562588D01*
X489493Y562514D01*
X489641Y562458D01*
X489937Y562356D01*
X490223Y562292D01*
X490491Y562236D01*
X490612Y562227D01*
X490723Y562209D01*
X490824Y562199D01*
X490908D01*
X490972Y562190D01*
X491065D01*
X491324Y562199D01*
X491573Y562227D01*
X491804Y562273D01*
X492008Y562319D01*
X492091Y562338D01*
X492174Y562356D01*
X492248Y562384D01*
X492313Y562403D01*
X492359Y562421D01*
X492396Y562430D01*
X492415Y562440D01*
X492424D01*
X492673Y562541D01*
X492905Y562662D01*
X493126Y562791D01*
X493321Y562911D01*
X493404Y562967D01*
X493487Y563022D01*
X493552Y563068D01*
X493607Y563105D01*
X493653Y563142D01*
X493690Y563170D01*
X493709Y563179D01*
X493718Y563189D01*
Y562588D01*
Y566008D01*
Y565565D01*
X491000D01*
Y564807D01*
X492886D01*
Y563605D01*
X492775Y563512D01*
X492646Y563429D01*
X492507Y563355D01*
X492378Y563290D01*
X492267Y563235D01*
X492165Y563189D01*
X492128Y563170D01*
X492109Y563161D01*
X492091Y563152D01*
X492082D01*
X491888Y563087D01*
X491693Y563031D01*
X491518Y562994D01*
X491351Y562976D01*
X491213Y562957D01*
X491157D01*
X491102Y562948D01*
X491009D01*
X490778Y562957D01*
X490556Y562994D01*
X490353Y563041D01*
X490168Y563087D01*
X490020Y563142D01*
X489955Y563161D01*
X489909Y563179D01*
X489863Y563198D01*
X489835Y563216D01*
X489817Y563226D01*
X489807D01*
X489613Y563346D01*
X489437Y563475D01*
X489290Y563614D01*
X489169Y563753D01*
X489068Y563882D01*
X489003Y563984D01*
X488975Y564021D01*
X488966Y564048D01*
X488947Y564067D01*
Y564076D01*
X488855Y564307D01*
X488781Y564548D01*
X488735Y564788D01*
X488698Y565019D01*
X488689Y565121D01*
X488679Y565213D01*
X488670Y565306D01*
Y565380D01*
X488661Y565435D01*
Y565481D01*
Y565509D01*
Y565518D01*
X488670Y565777D01*
X488698Y566008D01*
X488735Y566230D01*
X488781Y566424D01*
X488800Y566508D01*
X488827Y566582D01*
X488846Y566646D01*
X488864Y566702D01*
X488883Y566748D01*
X488892Y566776D01*
X488901Y566794D01*
Y566804D01*
X488966Y566933D01*
X489031Y567053D01*
X489095Y567164D01*
X489160Y567257D01*
X489216Y567331D01*
X489262Y567395D01*
X489299Y567432D01*
X489308Y567442D01*
X489410Y567543D01*
X489521Y567636D01*
X489641Y567710D01*
X489752Y567784D01*
X489844Y567830D01*
X489918Y567876D01*
X489974Y567895D01*
X489992Y567904D01*
X490159Y567969D01*
X490325Y568015D01*
X490501Y568042D01*
X490658Y568070D01*
X490797Y568079D01*
X490852D01*
X490898Y568089D01*
X491000D01*
X491176Y568079D01*
X491342Y568061D01*
X491490Y568033D01*
X491619Y568005D01*
X491730Y567969D01*
X491814Y567941D01*
X491860Y567922D01*
X491878Y567913D01*
X492017Y567848D01*
X492137Y567774D01*
X492248Y567700D01*
X492331Y567626D01*
X492396Y567562D01*
X492452Y567515D01*
X492479Y567478D01*
X492489Y567469D01*
X492572Y567358D01*
X492636Y567229D01*
X492701Y567109D01*
X492757Y566979D01*
X492794Y566868D01*
X492821Y566785D01*
X492831Y566748D01*
X492840Y566720D01*
X492849Y566711D01*
Y566702D01*
X493616Y566905D01*
X493552Y567136D01*
X493469Y567340D01*
X493385Y567525D01*
X493311Y567673D01*
X493237Y567793D01*
X493182Y567876D01*
X493145Y567932D01*
X493126Y567950D01*
X492997Y568098D01*
X492858Y568218D01*
X492710Y568329D01*
X492572Y568422D01*
X492442Y568486D01*
X492341Y568542D01*
X492304Y568560D01*
X492276Y568569D01*
X492257Y568579D01*
X492248D01*
X492035Y568653D01*
X491814Y568708D01*
X491610Y568754D01*
X491416Y568782D01*
X491240Y568801D01*
X491166D01*
X491111Y568810D01*
X493718D01*
D01*
D02*
G37*
G36*
X506708Y568699D02*
X501420D01*
Y562301D01*
X503722D01*
X503935Y562310D01*
X504129Y562319D01*
X504304Y562338D01*
X504452Y562356D01*
X504582Y562375D01*
X504674Y562384D01*
X504702Y562393D01*
X504730Y562403D01*
X504748D01*
X504915Y562449D01*
X505062Y562504D01*
X505192Y562551D01*
X505303Y562606D01*
X505395Y562652D01*
X505460Y562689D01*
X505497Y562717D01*
X505516Y562726D01*
X505636Y562809D01*
X505737Y562911D01*
X505839Y563004D01*
X505922Y563096D01*
X505996Y563179D01*
X506052Y563244D01*
X506089Y563290D01*
X506098Y563309D01*
X506190Y563457D01*
X506283Y563614D01*
X506357Y563762D01*
X506412Y563910D01*
X506468Y564039D01*
X506505Y564141D01*
X506514Y564178D01*
X506523Y564206D01*
X506533Y564224D01*
Y564233D01*
X506588Y564455D01*
X506634Y564677D01*
X506662Y564890D01*
X506690Y565093D01*
X506699Y565269D01*
Y565343D01*
X506708Y565407D01*
Y565528D01*
D01*
X506699Y565842D01*
X506671Y566129D01*
X506625Y566388D01*
X506607Y566508D01*
X506579Y566609D01*
X506551Y566711D01*
X506533Y566794D01*
X506514Y566868D01*
X506486Y566933D01*
X506477Y566988D01*
X506459Y567025D01*
X506449Y567044D01*
Y567053D01*
X506348Y567294D01*
X506227Y567506D01*
X506098Y567691D01*
X505978Y567848D01*
X505867Y567978D01*
X505774Y568070D01*
X505737Y568098D01*
X505710Y568126D01*
X505700Y568135D01*
X505691Y568144D01*
X505543Y568264D01*
X505386Y568357D01*
X505229Y568440D01*
X505081Y568505D01*
X504952Y568551D01*
X504850Y568579D01*
X504813Y568597D01*
X504785D01*
X504767Y568606D01*
X504757D01*
X504600Y568634D01*
X504415Y568662D01*
X504230Y568680D01*
X504045Y568690D01*
X503879Y568699D01*
X506708D01*
D01*
D02*
G37*
G36*
X499996D02*
X494957D01*
Y562301D01*
X495771D01*
Y567321D01*
X499118Y562301D01*
X499996D01*
Y568699D01*
D02*
G37*
%LPD*%
G36*
X503870Y567932D02*
X503990D01*
X504101Y567922D01*
X504286Y567895D01*
X504434Y567876D01*
X504554Y567848D01*
X504637Y567821D01*
X504683Y567811D01*
X504702Y567802D01*
X504868Y567719D01*
X505026Y567617D01*
X505164Y567497D01*
X505284Y567377D01*
X505377Y567266D01*
X505451Y567173D01*
X505469Y567136D01*
X505488Y567109D01*
X505506Y567090D01*
Y567081D01*
X505562Y566979D01*
X505617Y566859D01*
X505700Y566619D01*
X505756Y566360D01*
X505802Y566110D01*
X505811Y565999D01*
X505821Y565888D01*
X505830Y565796D01*
Y565713D01*
X505839Y565639D01*
Y565592D01*
Y565555D01*
Y565546D01*
X505830Y565287D01*
X505811Y565047D01*
X505784Y564834D01*
X505756Y564649D01*
X505737Y564575D01*
X505719Y564511D01*
X505700Y564446D01*
X505691Y564400D01*
X505682Y564363D01*
X505673Y564335D01*
X505663Y564316D01*
Y564307D01*
X505599Y564132D01*
X505525Y563974D01*
X505442Y563836D01*
X505368Y563716D01*
X505303Y563623D01*
X505247Y563558D01*
X505210Y563521D01*
X505201Y563503D01*
X505109Y563429D01*
X505016Y563364D01*
X504924Y563309D01*
X504831Y563253D01*
X504748Y563216D01*
X504683Y563189D01*
X504637Y563179D01*
X504619Y563170D01*
X504480Y563133D01*
X504314Y563105D01*
X504147Y563087D01*
X503990Y563078D01*
X503851Y563068D01*
X503787Y563059D01*
X502270D01*
Y567941D01*
X503750D01*
X503870Y567932D01*
D02*
G37*
G36*
X499182Y563669D02*
X495826Y568699D01*
X499182D01*
Y563669D01*
D02*
G37*
%LPC*%
G36*
X518022Y568810D02*
X515415D01*
X517902D01*
X517662Y568801D01*
X517449Y568773D01*
X517246Y568736D01*
X517070Y568699D01*
X516931Y568662D01*
X516867Y568643D01*
X516820Y568625D01*
X516783Y568606D01*
X516756Y568597D01*
X516737Y568588D01*
X516728D01*
X516543Y568496D01*
X516377Y568394D01*
X516238Y568283D01*
X516127Y568181D01*
X516044Y568089D01*
X515979Y568015D01*
X515933Y567959D01*
X515924Y567950D01*
Y567941D01*
X515831Y567784D01*
X515766Y567626D01*
X515720Y567469D01*
X515692Y567331D01*
X515674Y567210D01*
X515656Y567118D01*
Y567081D01*
Y567053D01*
Y567044D01*
Y567035D01*
X515665Y566878D01*
X515692Y566730D01*
X515729Y566591D01*
X515766Y566471D01*
X515803Y566378D01*
X515840Y566304D01*
X515868Y566258D01*
X515877Y566240D01*
X515970Y566110D01*
X516081Y565990D01*
X516192Y565888D01*
X516303Y565805D01*
X516395Y565731D01*
X516478Y565685D01*
X516534Y565648D01*
X516543Y565639D01*
X516552D01*
X516626Y565602D01*
X516710Y565565D01*
X516894Y565500D01*
X517107Y565435D01*
X517310Y565370D01*
X517495Y565315D01*
X517579Y565297D01*
X517653Y565278D01*
X517708Y565260D01*
X517754Y565250D01*
X517782Y565241D01*
X517791D01*
X517948Y565204D01*
X518096Y565167D01*
X518226Y565130D01*
X518337Y565102D01*
X518448Y565075D01*
X518540Y565047D01*
X518623Y565028D01*
X518688Y565001D01*
X518753Y564982D01*
X518799Y564973D01*
X518873Y564945D01*
X518919Y564936D01*
X518928Y564927D01*
X519067Y564871D01*
X519187Y564807D01*
X519289Y564742D01*
X519363Y564686D01*
X519428Y564631D01*
X519465Y564594D01*
X519492Y564566D01*
X519502Y564557D01*
X519566Y564474D01*
X519613Y564381D01*
X519640Y564289D01*
X519668Y564215D01*
X519677Y564141D01*
X519687Y564085D01*
Y564039D01*
Y564030D01*
X519677Y563919D01*
X519659Y563817D01*
X519631Y563725D01*
X519594Y563651D01*
X519557Y563577D01*
X519529Y563531D01*
X519511Y563494D01*
X519502Y563484D01*
X519428Y563392D01*
X519335Y563318D01*
X519243Y563253D01*
X519160Y563189D01*
X519076Y563152D01*
X519012Y563115D01*
X518965Y563096D01*
X518947Y563087D01*
X518808Y563041D01*
X518660Y563004D01*
X518512Y562985D01*
X518383Y562967D01*
X518272Y562957D01*
X518180Y562948D01*
X518096D01*
X517893Y562957D01*
X517708Y562976D01*
X517542Y563004D01*
X517394Y563041D01*
X517273Y563078D01*
X517181Y563105D01*
X517153Y563115D01*
X517126Y563124D01*
X517116Y563133D01*
X517107D01*
X516959Y563207D01*
X516820Y563290D01*
X516719Y563373D01*
X516626Y563457D01*
X516552Y563521D01*
X516506Y563586D01*
X516478Y563623D01*
X516469Y563632D01*
X516404Y563753D01*
X516340Y563882D01*
X516303Y564021D01*
X516266Y564141D01*
X516238Y564261D01*
X516219Y564344D01*
Y564381D01*
X516210Y564409D01*
Y564418D01*
Y564427D01*
X515415Y564353D01*
X515434Y564122D01*
X515471Y563900D01*
X515526Y563706D01*
X515591Y563531D01*
X515656Y563392D01*
X515683Y563336D01*
X515702Y563290D01*
X515729Y563253D01*
X515739Y563226D01*
X515757Y563207D01*
Y563198D01*
X515896Y563022D01*
X516044Y562865D01*
X516201Y562736D01*
X516349Y562625D01*
X516478Y562541D01*
X516589Y562486D01*
X516626Y562467D01*
X516654Y562449D01*
X516673Y562440D01*
X516682D01*
X516913Y562356D01*
X517153Y562292D01*
X517394Y562255D01*
X517625Y562218D01*
X517736Y562209D01*
X517828Y562199D01*
X517911D01*
X517985Y562190D01*
X515415D01*
X520500D01*
Y564095D01*
X520491Y564280D01*
X520463Y564455D01*
X520417Y564612D01*
X520371Y564742D01*
X520315Y564853D01*
X520278Y564936D01*
X520241Y564982D01*
X520232Y565001D01*
X520121Y565139D01*
X519992Y565269D01*
X519853Y565380D01*
X519714Y565481D01*
X519594Y565555D01*
X519492Y565611D01*
X519455Y565629D01*
X519428Y565648D01*
X519409Y565657D01*
X519400D01*
X519326Y565694D01*
X519234Y565722D01*
X519132Y565759D01*
X519021Y565796D01*
X518790Y565861D01*
X518549Y565925D01*
X518438Y565953D01*
X518337Y565981D01*
X518235Y566008D01*
X518152Y566027D01*
X518087Y566045D01*
X518032Y566055D01*
X517995Y566064D01*
X517985D01*
X517800Y566110D01*
X517634Y566147D01*
X517486Y566193D01*
X517357Y566230D01*
X517237Y566277D01*
X517135Y566314D01*
X517042Y566351D01*
X516959Y566378D01*
X516894Y566415D01*
X516839Y566443D01*
X516802Y566461D01*
X516765Y566489D01*
X516719Y566517D01*
X516710Y566526D01*
X516626Y566619D01*
X516571Y566711D01*
X516525Y566804D01*
X516497Y566896D01*
X516478Y566970D01*
X516469Y567035D01*
Y567072D01*
Y567090D01*
X516488Y567238D01*
X516525Y567368D01*
X516580Y567478D01*
X516645Y567580D01*
X516700Y567654D01*
X516756Y567719D01*
X516793Y567756D01*
X516811Y567765D01*
X516885Y567811D01*
X516959Y567858D01*
X517135Y567932D01*
X517320Y567978D01*
X517505Y568015D01*
X517671Y568033D01*
X517745Y568042D01*
X517800Y568052D01*
X517930D01*
X518189Y568042D01*
X518420Y568005D01*
X518605Y567950D01*
X518762Y567895D01*
X518882Y567839D01*
X518975Y567784D01*
X519021Y567747D01*
X519039Y567737D01*
X519169Y567608D01*
X519271Y567469D01*
X519354Y567321D01*
X519409Y567173D01*
X519446Y567035D01*
X519474Y566933D01*
X519483Y566887D01*
X519492Y566859D01*
Y566841D01*
Y566831D01*
X520306Y566896D01*
X520288Y567099D01*
X520241Y567284D01*
X520195Y567460D01*
X520130Y567608D01*
X520075Y567728D01*
X520029Y567821D01*
X520010Y567848D01*
X519992Y567876D01*
X519982Y567885D01*
Y567895D01*
X519862Y568052D01*
X519733Y568190D01*
X519594Y568311D01*
X519455Y568403D01*
X519335Y568486D01*
X519243Y568532D01*
X519206Y568551D01*
X519178Y568569D01*
X519160Y568579D01*
X519150D01*
X518947Y568653D01*
X518725Y568708D01*
X518522Y568754D01*
X518327Y568782D01*
X518152Y568801D01*
X518087D01*
X518022Y568810D01*
D02*
G37*
G36*
X524522D02*
X524430D01*
X524124Y568791D01*
X523829Y568745D01*
X523570Y568690D01*
X523450Y568653D01*
X523339Y568616D01*
X523237Y568579D01*
X523144Y568542D01*
X523070Y568514D01*
X522996Y568486D01*
X522950Y568459D01*
X522913Y568440D01*
X522886Y568431D01*
X522876Y568422D01*
X522627Y568264D01*
X522414Y568079D01*
X522229Y567895D01*
X522072Y567710D01*
X521952Y567543D01*
X521906Y567469D01*
X521869Y567405D01*
X521832Y567358D01*
X521813Y567321D01*
X521804Y567294D01*
X521795Y567284D01*
X521665Y566998D01*
X521573Y566702D01*
X521508Y566406D01*
X521462Y566138D01*
X521443Y566018D01*
X521434Y565897D01*
X521425Y565805D01*
Y565713D01*
X521415Y565648D01*
Y565546D01*
X521434Y565213D01*
X521471Y564890D01*
X521517Y564603D01*
X521554Y564464D01*
X521582Y564344D01*
X521610Y564233D01*
X521647Y564132D01*
X521674Y564039D01*
X521693Y563965D01*
X521721Y563910D01*
X521730Y563863D01*
X521748Y563836D01*
Y563826D01*
X521887Y563549D01*
X522044Y563299D01*
X522211Y563087D01*
X522294Y563004D01*
X522368Y562920D01*
X522442Y562846D01*
X522516Y562782D01*
X522580Y562726D01*
X522636Y562689D01*
X522673Y562652D01*
X522710Y562625D01*
X522728Y562615D01*
X522738Y562606D01*
X522867Y562532D01*
X522996Y562467D01*
X523274Y562366D01*
X523551Y562292D01*
X523819Y562245D01*
X523949Y562227D01*
X524060Y562209D01*
X524161Y562199D01*
X524245D01*
X524319Y562190D01*
X521415D01*
X524420D01*
X524605Y562199D01*
X524781Y562218D01*
X524947Y562236D01*
X525104Y562273D01*
X525252Y562319D01*
X525391Y562366D01*
X525521Y562412D01*
X525641Y562467D01*
X525742Y562514D01*
X525844Y562560D01*
X525918Y562606D01*
X525992Y562652D01*
X526038Y562689D01*
X526085Y562708D01*
X526103Y562726D01*
X526112Y562736D01*
X526242Y562846D01*
X526353Y562957D01*
X526454Y563087D01*
X526556Y563216D01*
X526722Y563475D01*
X526852Y563734D01*
X526907Y563854D01*
X526954Y563965D01*
X526991Y564067D01*
X527018Y564150D01*
X527046Y564224D01*
X527065Y564280D01*
X527074Y564316D01*
Y562541D01*
Y564353D01*
Y564326D01*
X526223Y564538D01*
X526186Y564390D01*
X526140Y564252D01*
X526094Y564122D01*
X526048Y564002D01*
X525992Y563891D01*
X525937Y563799D01*
X525872Y563706D01*
X525816Y563623D01*
X525770Y563549D01*
X525715Y563494D01*
X525668Y563438D01*
X525631Y563392D01*
X525594Y563364D01*
X525567Y563336D01*
X525558Y563327D01*
X525548Y563318D01*
X525456Y563244D01*
X525354Y563189D01*
X525151Y563087D01*
X524957Y563013D01*
X524762Y562967D01*
X524596Y562930D01*
X524531Y562920D01*
X524467D01*
X524411Y562911D01*
X524346D01*
X524134Y562920D01*
X523930Y562957D01*
X523745Y563004D01*
X523579Y563059D01*
X523450Y563115D01*
X523394Y563142D01*
X523348Y563161D01*
X523311Y563179D01*
X523283Y563198D01*
X523265Y563207D01*
X523255D01*
X523080Y563336D01*
X522932Y563475D01*
X522802Y563632D01*
X522701Y563780D01*
X522617Y563910D01*
X522562Y564021D01*
X522543Y564067D01*
X522525Y564095D01*
X522516Y564113D01*
Y564122D01*
X522442Y564363D01*
X522386Y564603D01*
X522340Y564843D01*
X522312Y565065D01*
X522303Y565167D01*
X522294Y565260D01*
Y565343D01*
X522285Y565407D01*
Y565463D01*
Y565509D01*
Y565537D01*
Y565546D01*
X522294Y565787D01*
X522312Y566008D01*
X522349Y566212D01*
X522386Y566397D01*
X522414Y566554D01*
X522433Y566619D01*
X522451Y566674D01*
X522460Y566720D01*
X522469Y566748D01*
X522479Y566767D01*
Y566776D01*
X522571Y566988D01*
X522673Y567183D01*
X522784Y567340D01*
X522904Y567478D01*
X523006Y567589D01*
X523089Y567663D01*
X523154Y567710D01*
X523163Y567728D01*
X523172D01*
X523366Y567848D01*
X523579Y567941D01*
X523782Y568005D01*
X523977Y568042D01*
X524152Y568070D01*
X524226Y568079D01*
X524291D01*
X524337Y568089D01*
X524411D01*
X524642Y568079D01*
X524855Y568042D01*
X525031Y567987D01*
X525188Y567932D01*
X525308Y567867D01*
X525400Y567821D01*
X525456Y567784D01*
X525474Y567765D01*
X525622Y567626D01*
X525761Y567469D01*
X525872Y567303D01*
X525964Y567136D01*
X526038Y566988D01*
X526066Y566915D01*
X526085Y566859D01*
X526103Y566813D01*
X526121Y566776D01*
X526131Y566757D01*
Y566748D01*
X526963Y566942D01*
X526907Y567109D01*
X526852Y567257D01*
X526778Y567395D01*
X526713Y567534D01*
X526639Y567654D01*
X526556Y567765D01*
X526482Y567876D01*
X526408Y567969D01*
X526334Y568042D01*
X526269Y568116D01*
X526205Y568181D01*
X526158Y568227D01*
X526112Y568274D01*
X526075Y568301D01*
X526057Y568311D01*
X526048Y568320D01*
X525918Y568403D01*
X525789Y568486D01*
X525659Y568551D01*
X525521Y568606D01*
X525243Y568690D01*
X524994Y568745D01*
X524873Y568773D01*
X524772Y568782D01*
X524670Y568791D01*
X524587Y568801D01*
X524522Y568810D01*
D02*
G37*
G36*
X532085Y568699D02*
X528082D01*
Y562301D01*
X532085D01*
Y563078D01*
Y563059D01*
X528932D01*
Y568699D01*
X532085D01*
D02*
G37*
%LPD*%
G36*
X520500Y562190D02*
X518133D01*
X518383Y562199D01*
X518614Y562227D01*
X518827Y562273D01*
X519002Y562319D01*
X519150Y562356D01*
X519215Y562384D01*
X519271Y562403D01*
X519308Y562421D01*
X519335Y562430D01*
X519354Y562440D01*
X519363D01*
X519557Y562541D01*
X519724Y562652D01*
X519871Y562772D01*
X519992Y562883D01*
X520084Y562976D01*
X520149Y563059D01*
X520195Y563115D01*
X520204Y563124D01*
Y563133D01*
X520306Y563309D01*
X520380Y563475D01*
X520426Y563632D01*
X520463Y563780D01*
X520482Y563910D01*
X520500Y564011D01*
Y562190D01*
D02*
G37*
%LPC*%
G36*
X544366Y568810D02*
X541759D01*
X544246D01*
X544005Y568801D01*
X543793Y568773D01*
X543589Y568736D01*
X543414Y568699D01*
X543275Y568662D01*
X543210Y568643D01*
X543164Y568625D01*
X543127Y568606D01*
X543099Y568597D01*
X543081Y568588D01*
X543072D01*
X542887Y568496D01*
X542720Y568394D01*
X542581Y568283D01*
X542471Y568181D01*
X542387Y568089D01*
X542323Y568015D01*
X542276Y567959D01*
X542267Y567950D01*
Y567941D01*
X542175Y567784D01*
X542110Y567626D01*
X542064Y567469D01*
X542036Y567331D01*
X542018Y567210D01*
X541999Y567118D01*
Y567081D01*
Y567053D01*
Y567044D01*
Y567035D01*
X542008Y566878D01*
X542036Y566730D01*
X542073Y566591D01*
X542110Y566471D01*
X542147Y566378D01*
X542184Y566304D01*
X542212Y566258D01*
X542221Y566240D01*
X542313Y566110D01*
X542424Y565990D01*
X542535Y565888D01*
X542646Y565805D01*
X542739Y565731D01*
X542822Y565685D01*
X542877Y565648D01*
X542887Y565639D01*
X542896D01*
X542970Y565602D01*
X543053Y565565D01*
X543238Y565500D01*
X543451Y565435D01*
X543654Y565370D01*
X543839Y565315D01*
X543922Y565297D01*
X543996Y565278D01*
X544052Y565260D01*
X544098Y565250D01*
X544126Y565241D01*
X544135D01*
X544292Y565204D01*
X544440Y565167D01*
X544569Y565130D01*
X544680Y565102D01*
X544791Y565075D01*
X544884Y565047D01*
X544967Y565028D01*
X545032Y565001D01*
X545096Y564982D01*
X545143Y564973D01*
X545216Y564945D01*
X545263Y564936D01*
X545272Y564927D01*
X545411Y564871D01*
X545531Y564807D01*
X545633Y564742D01*
X545706Y564686D01*
X545771Y564631D01*
X545808Y564594D01*
X545836Y564566D01*
X545845Y564557D01*
X545910Y564474D01*
X545956Y564381D01*
X545984Y564289D01*
X546012Y564215D01*
X546021Y564141D01*
X546030Y564085D01*
Y564039D01*
Y564030D01*
X546021Y563919D01*
X546002Y563817D01*
X545975Y563725D01*
X545938Y563651D01*
X545901Y563577D01*
X545873Y563531D01*
X545854Y563494D01*
X545845Y563484D01*
X545771Y563392D01*
X545679Y563318D01*
X545586Y563253D01*
X545503Y563189D01*
X545420Y563152D01*
X545355Y563115D01*
X545309Y563096D01*
X545290Y563087D01*
X545152Y563041D01*
X545004Y563004D01*
X544856Y562985D01*
X544726Y562967D01*
X544616Y562957D01*
X544523Y562948D01*
X544440D01*
X544236Y562957D01*
X544052Y562976D01*
X543885Y563004D01*
X543737Y563041D01*
X543617Y563078D01*
X543525Y563105D01*
X543497Y563115D01*
X543469Y563124D01*
X543460Y563133D01*
X543451D01*
X543303Y563207D01*
X543164Y563290D01*
X543062Y563373D01*
X542970Y563457D01*
X542896Y563521D01*
X542850Y563586D01*
X542822Y563623D01*
X542813Y563632D01*
X542748Y563753D01*
X542683Y563882D01*
X542646Y564021D01*
X542609Y564141D01*
X542581Y564261D01*
X542563Y564344D01*
Y564381D01*
X542554Y564409D01*
Y564418D01*
Y564427D01*
X541759Y564353D01*
X541777Y564122D01*
X541814Y563900D01*
X541870Y563706D01*
X541934Y563531D01*
X541999Y563392D01*
X542027Y563336D01*
X542045Y563290D01*
X542073Y563253D01*
X542082Y563226D01*
X542101Y563207D01*
Y563198D01*
X542239Y563022D01*
X542387Y562865D01*
X542545Y562736D01*
X542692Y562625D01*
X542822Y562541D01*
X542933Y562486D01*
X542970Y562467D01*
X542998Y562449D01*
X543016Y562440D01*
X543025D01*
X543256Y562356D01*
X543497Y562292D01*
X543737Y562255D01*
X543968Y562218D01*
X544079Y562209D01*
X544172Y562199D01*
X544255D01*
X544329Y562190D01*
X541759D01*
X546844D01*
Y564095D01*
X546834Y564280D01*
X546807Y564455D01*
X546760Y564612D01*
X546714Y564742D01*
X546659Y564853D01*
X546622Y564936D01*
X546585Y564982D01*
X546576Y565001D01*
X546465Y565139D01*
X546335Y565269D01*
X546197Y565380D01*
X546058Y565481D01*
X545938Y565555D01*
X545836Y565611D01*
X545799Y565629D01*
X545771Y565648D01*
X545753Y565657D01*
X545743D01*
X545670Y565694D01*
X545577Y565722D01*
X545475Y565759D01*
X545364Y565796D01*
X545133Y565861D01*
X544893Y565925D01*
X544782Y565953D01*
X544680Y565981D01*
X544579Y566008D01*
X544495Y566027D01*
X544431Y566045D01*
X544375Y566055D01*
X544338Y566064D01*
X544329D01*
X544144Y566110D01*
X543978Y566147D01*
X543830Y566193D01*
X543700Y566230D01*
X543580Y566277D01*
X543478Y566314D01*
X543386Y566351D01*
X543303Y566378D01*
X543238Y566415D01*
X543182Y566443D01*
X543145Y566461D01*
X543108Y566489D01*
X543062Y566517D01*
X543053Y566526D01*
X542970Y566619D01*
X542914Y566711D01*
X542868Y566804D01*
X542840Y566896D01*
X542822Y566970D01*
X542813Y567035D01*
Y567072D01*
Y567090D01*
X542831Y567238D01*
X542868Y567368D01*
X542924Y567478D01*
X542988Y567580D01*
X543044Y567654D01*
X543099Y567719D01*
X543136Y567756D01*
X543155Y567765D01*
X543229Y567811D01*
X543303Y567858D01*
X543478Y567932D01*
X543663Y567978D01*
X543848Y568015D01*
X544015Y568033D01*
X544089Y568042D01*
X544144Y568052D01*
X544273D01*
X544532Y568042D01*
X544763Y568005D01*
X544948Y567950D01*
X545106Y567895D01*
X545226Y567839D01*
X545318Y567784D01*
X545364Y567747D01*
X545383Y567737D01*
X545512Y567608D01*
X545614Y567469D01*
X545697Y567321D01*
X545753Y567173D01*
X545790Y567035D01*
X545817Y566933D01*
X545827Y566887D01*
X545836Y566859D01*
Y566841D01*
Y566831D01*
X546650Y566896D01*
X546631Y567099D01*
X546585Y567284D01*
X546539Y567460D01*
X546474Y567608D01*
X546418Y567728D01*
X546372Y567821D01*
X546354Y567848D01*
X546335Y567876D01*
X546326Y567885D01*
Y567895D01*
X546206Y568052D01*
X546076Y568190D01*
X545938Y568311D01*
X545799Y568403D01*
X545679Y568486D01*
X545586Y568532D01*
X545549Y568551D01*
X545522Y568569D01*
X545503Y568579D01*
X545494D01*
X545290Y568653D01*
X545069Y568708D01*
X544865Y568754D01*
X544671Y568782D01*
X544495Y568801D01*
X544431D01*
X544366Y568810D01*
D02*
G37*
G36*
X559741Y568699D02*
X553759D01*
X556200D01*
X553759Y562301D01*
X554830D01*
X554656D01*
X555350Y564243D01*
X558031D01*
X558780Y562301D01*
X559741D01*
X557125Y568699D01*
X559741D01*
D02*
G37*
G36*
X553297D02*
X548009D01*
Y562301D01*
X550311D01*
X550523Y562310D01*
X550718Y562319D01*
X550893Y562338D01*
X551041Y562356D01*
X551171Y562375D01*
X551263Y562384D01*
X551291Y562393D01*
X551319Y562403D01*
X551337D01*
X551503Y562449D01*
X551651Y562504D01*
X551781Y562551D01*
X551892Y562606D01*
X551984Y562652D01*
X552049Y562689D01*
X552086Y562717D01*
X552104Y562726D01*
X552225Y562809D01*
X552326Y562911D01*
X552428Y563004D01*
X552511Y563096D01*
X552585Y563179D01*
X552641Y563244D01*
X552678Y563290D01*
X552687Y563309D01*
X552779Y563457D01*
X552872Y563614D01*
X552946Y563762D01*
X553001Y563910D01*
X553057Y564039D01*
X553094Y564141D01*
X553103Y564178D01*
X553112Y564206D01*
X553121Y564224D01*
Y564233D01*
X553177Y564455D01*
X553223Y564677D01*
X553251Y564890D01*
X553279Y565093D01*
X553288Y565269D01*
Y565343D01*
X553297Y565407D01*
Y565528D01*
X553288Y565842D01*
X553260Y566129D01*
X553214Y566388D01*
X553195Y566508D01*
X553168Y566609D01*
X553140Y566711D01*
X553121Y566794D01*
X553103Y566868D01*
X553075Y566933D01*
X553066Y566988D01*
X553047Y567025D01*
X553038Y567044D01*
Y567053D01*
X552937Y567294D01*
X552816Y567506D01*
X552687Y567691D01*
X552567Y567848D01*
X552456Y567978D01*
X552363Y568070D01*
X552326Y568098D01*
X552299Y568126D01*
X552289Y568135D01*
X552280Y568144D01*
X552132Y568264D01*
X551975Y568357D01*
X551818Y568440D01*
X551670Y568505D01*
X551540Y568551D01*
X551439Y568579D01*
X551402Y568597D01*
X551374D01*
X551356Y568606D01*
X551346D01*
X551189Y568634D01*
X551004Y568662D01*
X550819Y568680D01*
X550634Y568690D01*
X550468Y568699D01*
X553297D01*
D01*
D02*
G37*
%LPD*%
G36*
X546844Y562190D02*
X544477D01*
X544726Y562199D01*
X544958Y562227D01*
X545170Y562273D01*
X545346Y562319D01*
X545494Y562356D01*
X545559Y562384D01*
X545614Y562403D01*
X545651Y562421D01*
X545679Y562430D01*
X545697Y562440D01*
X545706D01*
X545901Y562541D01*
X546067Y562652D01*
X546215Y562772D01*
X546335Y562883D01*
X546428Y562976D01*
X546492Y563059D01*
X546539Y563115D01*
X546548Y563124D01*
Y563133D01*
X546650Y563309D01*
X546724Y563475D01*
X546770Y563632D01*
X546807Y563780D01*
X546825Y563910D01*
X546844Y564011D01*
Y562190D01*
D02*
G37*
G36*
X556709Y567821D02*
X556783Y567599D01*
X556857Y567377D01*
X556931Y567164D01*
X556968Y567072D01*
X556995Y566979D01*
X557023Y566896D01*
X557051Y566831D01*
X557069Y566776D01*
X557088Y566730D01*
X557097Y566702D01*
Y566693D01*
X557763Y564936D01*
X555599D01*
X556293Y566804D01*
X556376Y567035D01*
X556441Y567257D01*
X556505Y567460D01*
X556552Y567645D01*
X556589Y567802D01*
X556607Y567867D01*
X556616Y567932D01*
X556635Y567969D01*
Y568005D01*
X556644Y568024D01*
Y568033D01*
X556709Y567821D01*
D02*
G37*
G36*
X550459Y567932D02*
X550579D01*
X550690Y567922D01*
X550875Y567895D01*
X551023Y567876D01*
X551143Y567848D01*
X551226Y567821D01*
X551272Y567811D01*
X551291Y567802D01*
X551457Y567719D01*
X551614Y567617D01*
X551753Y567497D01*
X551873Y567377D01*
X551966Y567266D01*
X552040Y567173D01*
X552058Y567136D01*
X552077Y567109D01*
X552095Y567090D01*
Y567081D01*
X552151Y566979D01*
X552206Y566859D01*
X552289Y566619D01*
X552345Y566360D01*
X552391Y566110D01*
X552400Y565999D01*
X552410Y565888D01*
X552419Y565796D01*
Y565713D01*
X552428Y565639D01*
Y565592D01*
Y565555D01*
Y565546D01*
X552419Y565287D01*
X552400Y565047D01*
X552373Y564834D01*
X552345Y564649D01*
X552326Y564575D01*
X552308Y564511D01*
X552289Y564446D01*
X552280Y564400D01*
X552271Y564363D01*
X552262Y564335D01*
X552252Y564316D01*
Y564307D01*
X552188Y564132D01*
X552114Y563974D01*
X552030Y563836D01*
X551957Y563716D01*
X551892Y563623D01*
X551836Y563558D01*
X551799Y563521D01*
X551790Y563503D01*
X551698Y563429D01*
X551605Y563364D01*
X551513Y563309D01*
X551420Y563253D01*
X551337Y563216D01*
X551272Y563189D01*
X551226Y563179D01*
X551208Y563170D01*
X551069Y563133D01*
X550903Y563105D01*
X550736Y563087D01*
X550579Y563078D01*
X550440Y563068D01*
X550376Y563059D01*
X548859D01*
Y567941D01*
X550339D01*
X550459Y567932D01*
D02*
G37*
%LPC*%
G36*
X466532Y568449D02*
X465672D01*
X463934Y563798D01*
X463860Y563604D01*
X463795Y563419D01*
X463739Y563244D01*
X463693Y563087D01*
X463647Y562948D01*
X463619Y562846D01*
X463610Y562809D01*
X463601Y562781D01*
X463591Y562763D01*
Y562754D01*
X463481Y563124D01*
X463425Y563299D01*
X463370Y563456D01*
X463323Y563595D01*
X463305Y563651D01*
X463296Y563706D01*
X463277Y563743D01*
X463268Y563771D01*
X463259Y563789D01*
Y563798D01*
X461595Y568449D01*
X465518D01*
X460670D01*
X463148Y562051D01*
X464035D01*
X466532Y568449D01*
D02*
G37*
G36*
X483812D02*
X478745D01*
Y567691D01*
X480853D01*
Y562051D01*
X483812D01*
Y568449D01*
D02*
G37*
G36*
X478542D02*
X472560D01*
X475001D01*
X472560Y562051D01*
X473630D01*
X473457D01*
X474150Y563993D01*
X476831D01*
X477580Y562051D01*
X478542D01*
X475925Y568449D01*
X478542D01*
D02*
G37*
G36*
X469777D02*
X467262D01*
Y562051D01*
X472098D01*
X469703D01*
X469925Y562060D01*
X470119Y562070D01*
X470295Y562088D01*
X470443Y562107D01*
X470563Y562125D01*
X470655Y562134D01*
X470711Y562153D01*
X470729D01*
X470886Y562199D01*
X471016Y562245D01*
X471136Y562301D01*
X471238Y562356D01*
X471321Y562393D01*
X471385Y562430D01*
X471423Y562458D01*
X471432Y562467D01*
X471534Y562550D01*
X471626Y562652D01*
X471700Y562754D01*
X471774Y562846D01*
X471829Y562939D01*
X471866Y563003D01*
X471894Y563050D01*
X471903Y563068D01*
X471968Y563216D01*
X472014Y563364D01*
X472051Y563503D01*
X472070Y563632D01*
X472088Y563743D01*
X472098Y563835D01*
Y563909D01*
X472088Y564113D01*
X472051Y564298D01*
X471996Y564455D01*
X471940Y564603D01*
X471885Y564714D01*
X471829Y564797D01*
X471792Y564852D01*
X471783Y564871D01*
X471654Y565019D01*
X471515Y565139D01*
X471358Y565241D01*
X471219Y565324D01*
X471090Y565389D01*
X470979Y565426D01*
X470942Y565444D01*
X470914Y565453D01*
X470896Y565463D01*
X470886D01*
X471044Y565555D01*
X471182Y565648D01*
X471293Y565749D01*
X471385Y565842D01*
X471460Y565916D01*
X471515Y565990D01*
X471543Y566027D01*
X471552Y566045D01*
X471626Y566184D01*
X471681Y566313D01*
X471728Y566443D01*
X471755Y566563D01*
X471774Y566665D01*
X471783Y566748D01*
Y566794D01*
Y566813D01*
X471774Y566970D01*
X471746Y567127D01*
X471700Y567266D01*
X471654Y567395D01*
X471607Y567506D01*
X471561Y567580D01*
X471534Y567635D01*
X471524Y567654D01*
X471423Y567793D01*
X471312Y567922D01*
X471191Y568024D01*
X471080Y568107D01*
X470988Y568172D01*
X470905Y568218D01*
X470849Y568246D01*
X470840Y568255D01*
X470831D01*
X470655Y568320D01*
X470461Y568366D01*
X470267Y568403D01*
X470082Y568421D01*
X469916Y568440D01*
X469841D01*
X469777Y568449D01*
D02*
G37*
%LPD*%
G36*
X483812Y562051D02*
X481704D01*
Y567691D01*
X483812D01*
Y562051D01*
D02*
G37*
G36*
X475509Y567571D02*
X475583Y567349D01*
X475657Y567127D01*
X475731Y566914D01*
X475768Y566822D01*
X475796Y566729D01*
X475823Y566646D01*
X475851Y566581D01*
X475870Y566526D01*
X475888Y566480D01*
X475897Y566452D01*
Y566443D01*
X476563Y564686D01*
X474400D01*
X475093Y566554D01*
X475176Y566785D01*
X475241Y567007D01*
X475306Y567210D01*
X475352Y567395D01*
X475389Y567552D01*
X475407Y567617D01*
X475417Y567682D01*
X475435Y567719D01*
Y567756D01*
X475444Y567774D01*
Y567783D01*
X475509Y567571D01*
D02*
G37*
G36*
X469832Y567672D02*
X469990Y567663D01*
X470128Y567645D01*
X470230Y567626D01*
X470295Y567617D01*
X470341Y567598D01*
X470350D01*
X470452Y567561D01*
X470544Y567506D01*
X470618Y567450D01*
X470683Y567395D01*
X470729Y567349D01*
X470766Y567303D01*
X470785Y567275D01*
X470794Y567266D01*
X470849Y567173D01*
X470886Y567081D01*
X470914Y566988D01*
X470933Y566896D01*
X470942Y566822D01*
X470951Y566766D01*
Y566729D01*
Y566711D01*
X470942Y566591D01*
X470923Y566480D01*
X470896Y566387D01*
X470868Y566313D01*
X470840Y566249D01*
X470812Y566193D01*
X470794Y566165D01*
X470785Y566156D01*
X470720Y566082D01*
X470637Y566008D01*
X470553Y565953D01*
X470480Y565916D01*
X470406Y565879D01*
X470350Y565851D01*
X470313Y565842D01*
X470295Y565832D01*
X470193Y565814D01*
X470063Y565796D01*
X469934Y565786D01*
X469804Y565777D01*
X469684Y565768D01*
X468113D01*
Y567691D01*
X469629D01*
X469832Y567672D01*
D02*
G37*
G36*
X469990Y564991D02*
X470147Y564973D01*
X470276Y564954D01*
X470378Y564936D01*
X470461Y564917D01*
X470498Y564908D01*
X470517Y564899D01*
X470637Y564852D01*
X470738Y564797D01*
X470831Y564732D01*
X470905Y564668D01*
X470960Y564612D01*
X470997Y564566D01*
X471025Y564529D01*
X471034Y564520D01*
X471099Y564418D01*
X471145Y564316D01*
X471182Y564215D01*
X471201Y564122D01*
X471219Y564039D01*
X471228Y563965D01*
Y563928D01*
Y563909D01*
X471219Y563798D01*
X471210Y563688D01*
X471191Y563595D01*
X471164Y563521D01*
X471136Y563456D01*
X471117Y563401D01*
X471108Y563373D01*
X471099Y563364D01*
X471044Y563281D01*
X470997Y563207D01*
X470933Y563151D01*
X470886Y563096D01*
X470840Y563059D01*
X470803Y563031D01*
X470775Y563013D01*
X470766Y563003D01*
X470609Y562929D01*
X470452Y562874D01*
X470387Y562855D01*
X470331Y562846D01*
X470295Y562837D01*
X470285D01*
X470211Y562828D01*
X470128Y562818D01*
X469934Y562809D01*
X468113D01*
Y565010D01*
X469795D01*
X469990Y564991D01*
D02*
G37*
%LPC*%
G36*
X424775Y499449D02*
X419708D01*
Y493051D01*
Y498691D01*
X421816D01*
Y493051D01*
X424775D01*
X422667D01*
Y498691D01*
X424775D01*
Y499449D01*
D02*
G37*
G36*
X416888D02*
X415964D01*
X413523Y493051D01*
Y499449D01*
D01*
Y493051D01*
X419505D01*
D01*
X416888Y499449D01*
D02*
G37*
G36*
X410740D02*
X408225D01*
Y493051D01*
X413061D01*
X410666D01*
X410888Y493060D01*
X411082Y493069D01*
X411258Y493088D01*
X411406Y493106D01*
X411526Y493125D01*
X411618Y493134D01*
X411674Y493153D01*
X411692D01*
X411850Y493199D01*
X411979Y493245D01*
X412099Y493301D01*
X412201Y493356D01*
X412284Y493393D01*
X412349Y493430D01*
X412386Y493458D01*
X412395Y493467D01*
X412497Y493550D01*
X412589Y493652D01*
X412663Y493754D01*
X412737Y493846D01*
X412793Y493939D01*
X412830Y494003D01*
X412857Y494049D01*
X412867Y494068D01*
X412931Y494216D01*
X412977Y494364D01*
X413014Y494503D01*
X413033Y494632D01*
X413051Y494743D01*
X413061Y494835D01*
Y494909D01*
X413051Y495113D01*
X413014Y495298D01*
X412959Y495455D01*
X412904Y495603D01*
X412848Y495714D01*
X412793Y495797D01*
X412756Y495852D01*
X412746Y495871D01*
X412617Y496019D01*
X412478Y496139D01*
X412321Y496241D01*
X412182Y496324D01*
X412053Y496389D01*
X411942Y496426D01*
X411905Y496444D01*
X411877Y496453D01*
X411859Y496463D01*
X411850D01*
X412007Y496555D01*
X412145Y496647D01*
X412256Y496749D01*
X412349Y496842D01*
X412423Y496916D01*
X412478Y496990D01*
X412506Y497027D01*
X412515Y497045D01*
X412589Y497184D01*
X412645Y497313D01*
X412691Y497443D01*
X412719Y497563D01*
X412737Y497665D01*
X412746Y497748D01*
Y497794D01*
Y497812D01*
X412737Y497970D01*
X412709Y498127D01*
X412663Y498265D01*
X412617Y498395D01*
X412571Y498506D01*
X412524Y498580D01*
X412497Y498635D01*
X412487Y498654D01*
X412386Y498792D01*
X412275Y498922D01*
X412155Y499024D01*
X412044Y499107D01*
X411951Y499172D01*
X411868Y499218D01*
X411813Y499246D01*
X411803Y499255D01*
X411794D01*
X411618Y499319D01*
X411424Y499366D01*
X411230Y499403D01*
X411045Y499421D01*
X410879Y499440D01*
X410805D01*
X410740Y499449D01*
D02*
G37*
%LPD*%
G36*
X416472Y498571D02*
X416546Y498349D01*
X416620Y498127D01*
X416694Y497914D01*
X416731Y497822D01*
X416759Y497729D01*
X416787Y497646D01*
X416814Y497581D01*
X416833Y497526D01*
X416851Y497480D01*
X416861Y497452D01*
Y497443D01*
X417526Y495686D01*
X415363D01*
X416056Y497554D01*
X416139Y497785D01*
X416204Y498007D01*
X416269Y498210D01*
X416315Y498395D01*
X416352Y498552D01*
X416371Y498617D01*
X416380Y498682D01*
X416398Y498719D01*
Y498755D01*
X416408Y498774D01*
Y498783D01*
X416472Y498571D01*
D02*
G37*
G36*
X418543Y493051D02*
X414420D01*
X415113Y494993D01*
X417794D01*
X418543Y493051D01*
D02*
G37*
G36*
X410796Y498672D02*
X410953Y498663D01*
X411091Y498645D01*
X411193Y498626D01*
X411258Y498617D01*
X411304Y498598D01*
X411313D01*
X411415Y498561D01*
X411507Y498506D01*
X411581Y498450D01*
X411646Y498395D01*
X411692Y498349D01*
X411729Y498302D01*
X411748Y498275D01*
X411757Y498265D01*
X411813Y498173D01*
X411850Y498081D01*
X411877Y497988D01*
X411896Y497896D01*
X411905Y497822D01*
X411914Y497766D01*
Y497729D01*
Y497711D01*
X411905Y497591D01*
X411886Y497480D01*
X411859Y497387D01*
X411831Y497313D01*
X411803Y497248D01*
X411776Y497193D01*
X411757Y497165D01*
X411748Y497156D01*
X411683Y497082D01*
X411600Y497008D01*
X411517Y496953D01*
X411443Y496916D01*
X411369Y496879D01*
X411313Y496851D01*
X411276Y496842D01*
X411258Y496833D01*
X411156Y496814D01*
X411027Y496796D01*
X410897Y496786D01*
X410768Y496777D01*
X410648Y496768D01*
X409076D01*
Y498691D01*
X410592D01*
X410796Y498672D01*
D02*
G37*
G36*
X410953Y495991D02*
X411110Y495973D01*
X411239Y495954D01*
X411341Y495936D01*
X411424Y495917D01*
X411461Y495908D01*
X411480Y495899D01*
X411600Y495852D01*
X411702Y495797D01*
X411794Y495732D01*
X411868Y495667D01*
X411923Y495612D01*
X411960Y495566D01*
X411988Y495529D01*
X411997Y495520D01*
X412062Y495418D01*
X412108Y495316D01*
X412145Y495215D01*
X412164Y495122D01*
X412182Y495039D01*
X412192Y494965D01*
Y494928D01*
Y494909D01*
X412182Y494798D01*
X412173Y494688D01*
X412155Y494595D01*
X412127Y494521D01*
X412099Y494456D01*
X412081Y494401D01*
X412071Y494373D01*
X412062Y494364D01*
X412007Y494281D01*
X411960Y494207D01*
X411896Y494151D01*
X411850Y494096D01*
X411803Y494059D01*
X411766Y494031D01*
X411739Y494013D01*
X411729Y494003D01*
X411572Y493929D01*
X411415Y493874D01*
X411350Y493855D01*
X411295Y493846D01*
X411258Y493837D01*
X411249D01*
X411175Y493828D01*
X411091Y493818D01*
X410897Y493809D01*
X409076D01*
Y496010D01*
X410759D01*
X410953Y495991D01*
D02*
G37*
%LPC*%
G36*
X571746Y419810D02*
D01*
Y415095D01*
X571737Y415280D01*
X571709Y415455D01*
X571663Y415612D01*
X571617Y415742D01*
X571561Y415853D01*
X571524Y415936D01*
X571487Y415982D01*
X571478Y416001D01*
X571367Y416139D01*
X571237Y416269D01*
X571099Y416380D01*
X570960Y416482D01*
X570840Y416555D01*
X570738Y416611D01*
X570701Y416629D01*
X570673Y416648D01*
X570655Y416657D01*
X570646D01*
X570572Y416694D01*
X570479Y416722D01*
X570378Y416759D01*
X570267Y416796D01*
X570036Y416861D01*
X569795Y416925D01*
X569684Y416953D01*
X569582Y416981D01*
X569481Y417009D01*
X569398Y417027D01*
X569333Y417046D01*
X569277Y417055D01*
X569240Y417064D01*
X569231D01*
X569046Y417110D01*
X568880Y417147D01*
X568732Y417193D01*
X568602Y417230D01*
X568482Y417277D01*
X568381Y417314D01*
X568288Y417351D01*
X568205Y417378D01*
X568140Y417415D01*
X568085Y417443D01*
X568048Y417462D01*
X568011Y417489D01*
X567965Y417517D01*
X567955Y417526D01*
X567872Y417619D01*
X567817Y417711D01*
X567770Y417804D01*
X567743Y417896D01*
X567724Y417970D01*
X567715Y418035D01*
Y418072D01*
Y418090D01*
X567733Y418238D01*
X567770Y418368D01*
X567826Y418479D01*
X567891Y418580D01*
X567946Y418654D01*
X568002Y418719D01*
X568038Y418756D01*
X568057Y418765D01*
X568131Y418811D01*
X568205Y418858D01*
X568381Y418932D01*
X568565Y418978D01*
X568750Y419015D01*
X568917Y419033D01*
X568991Y419043D01*
X569046Y419052D01*
X569176D01*
X569435Y419043D01*
X569666Y419006D01*
X569851Y418950D01*
X570008Y418895D01*
X570128Y418839D01*
X570220Y418784D01*
X570267Y418747D01*
X570285Y418737D01*
X570415Y418608D01*
X570516Y418469D01*
X570600Y418321D01*
X570655Y418173D01*
X570692Y418035D01*
X570720Y417933D01*
X570729Y417887D01*
X570738Y417859D01*
Y417841D01*
Y417831D01*
X571552Y417896D01*
X571533Y418100D01*
X571487Y418284D01*
X571441Y418460D01*
X571376Y418608D01*
X571321Y418728D01*
X571274Y418821D01*
X571256Y418848D01*
X571237Y418876D01*
X571228Y418885D01*
Y418895D01*
X571108Y419052D01*
X570979Y419190D01*
X570840Y419311D01*
X570701Y419403D01*
X570581Y419486D01*
X570489Y419533D01*
X570452Y419551D01*
X570424Y419570D01*
X570405Y419579D01*
X570396D01*
X570193Y419653D01*
X569971Y419708D01*
X569767Y419754D01*
X569573Y419782D01*
X569398Y419801D01*
X569333D01*
X569268Y419810D01*
X571746D01*
X569148D01*
D01*
X566661D01*
X569148D01*
X568908Y419801D01*
X568695Y419773D01*
X568492Y419736D01*
X568316Y419699D01*
X568177Y419662D01*
X568112Y419644D01*
X568066Y419625D01*
X568029Y419607D01*
X568002Y419597D01*
X567983Y419588D01*
X567974D01*
X567789Y419496D01*
X567622Y419394D01*
X567484Y419283D01*
X567373Y419181D01*
X567290Y419089D01*
X567225Y419015D01*
X567179Y418959D01*
X567169Y418950D01*
Y418941D01*
X567077Y418784D01*
X567012Y418627D01*
X566966Y418469D01*
X566938Y418331D01*
X566920Y418210D01*
X566901Y418118D01*
Y418081D01*
Y418053D01*
Y418044D01*
Y418035D01*
X566911Y417878D01*
X566938Y417730D01*
X566975Y417591D01*
X567012Y417471D01*
X567049Y417378D01*
X567086Y417304D01*
X567114Y417258D01*
X567123Y417240D01*
X567216Y417110D01*
X567327Y416990D01*
X567438Y416888D01*
X567548Y416805D01*
X567641Y416731D01*
X567724Y416685D01*
X567780Y416648D01*
X567789Y416639D01*
X567798D01*
X567872Y416602D01*
X567955Y416565D01*
X568140Y416500D01*
X568353Y416435D01*
X568556Y416371D01*
X568741Y416315D01*
X568824Y416297D01*
X568898Y416278D01*
X568954Y416260D01*
X569000Y416250D01*
X569028Y416241D01*
X569037D01*
X569194Y416204D01*
X569342Y416167D01*
X569472Y416130D01*
X569582Y416102D01*
X569693Y416075D01*
X569786Y416047D01*
X569869Y416029D01*
X569934Y416001D01*
X569999Y415982D01*
X570045Y415973D01*
X570119Y415945D01*
X570165Y415936D01*
X570174Y415927D01*
X570313Y415871D01*
X570433Y415807D01*
X570535Y415742D01*
X570609Y415686D01*
X570673Y415631D01*
X570710Y415594D01*
X570738Y415566D01*
X570747Y415557D01*
X570812Y415474D01*
X570858Y415381D01*
X570886Y415289D01*
X570914Y415215D01*
X570923Y415141D01*
X570932Y415085D01*
Y415039D01*
Y415030D01*
X570923Y414919D01*
X570905Y414817D01*
X570877Y414725D01*
X570840Y414651D01*
X570803Y414577D01*
X570775Y414531D01*
X570757Y414494D01*
X570747Y414484D01*
X570673Y414392D01*
X570581Y414318D01*
X570489Y414253D01*
X570405Y414189D01*
X570322Y414152D01*
X570257Y414115D01*
X570211Y414096D01*
X570193Y414087D01*
X570054Y414041D01*
X569906Y414004D01*
X569758Y413985D01*
X569629Y413967D01*
X569518Y413957D01*
X569425Y413948D01*
X569342D01*
X569139Y413957D01*
X568954Y413976D01*
X568787Y414004D01*
X568639Y414041D01*
X568519Y414078D01*
X568427Y414105D01*
X568399Y414115D01*
X568371Y414124D01*
X568362Y414133D01*
X568353D01*
X568205Y414207D01*
X568066Y414290D01*
X567965Y414374D01*
X567872Y414457D01*
X567798Y414521D01*
X567752Y414586D01*
X567724Y414623D01*
X567715Y414632D01*
X567650Y414753D01*
X567585Y414882D01*
X567548Y415021D01*
X567511Y415141D01*
X567484Y415261D01*
X567465Y415344D01*
Y415381D01*
X567456Y415409D01*
Y415418D01*
Y415428D01*
X566661Y415354D01*
D01*
X566679Y415122D01*
X566716Y414901D01*
X566772Y414706D01*
X566837Y414531D01*
X566901Y414392D01*
X566929Y414337D01*
X566948Y414290D01*
X566975Y414253D01*
X566984Y414226D01*
X567003Y414207D01*
Y414198D01*
X567142Y414022D01*
X567290Y413865D01*
X567447Y413736D01*
X567595Y413625D01*
X567724Y413541D01*
X567835Y413486D01*
X567872Y413467D01*
X567900Y413449D01*
X567918Y413440D01*
X567928D01*
X568159Y413357D01*
X568399Y413292D01*
X568639Y413255D01*
X568871Y413218D01*
X568982Y413209D01*
X569074Y413199D01*
X569157D01*
X569231Y413190D01*
X569379D01*
X569629Y413199D01*
X569860Y413227D01*
X570073Y413273D01*
X570248Y413320D01*
X570396Y413357D01*
X570461Y413384D01*
X570516Y413403D01*
X570553Y413421D01*
X570581Y413430D01*
X570600Y413440D01*
X570609D01*
X570803Y413541D01*
X570969Y413652D01*
X571117Y413773D01*
X571237Y413884D01*
X571330Y413976D01*
X571395Y414059D01*
X571441Y414115D01*
X571450Y414124D01*
Y414133D01*
X571552Y414309D01*
X571626Y414475D01*
X571672Y414632D01*
X571709Y414780D01*
X571727Y414910D01*
X571746Y415011D01*
Y413190D01*
D01*
D01*
Y419810D01*
D02*
G37*
G36*
X577700Y419699D02*
D01*
Y414059D01*
X573771D01*
Y416232D01*
X577312D01*
Y416990D01*
X573771D01*
Y418941D01*
X577552D01*
Y419699D01*
X577700D01*
X572920D01*
Y413301D01*
X577700D01*
Y419699D01*
D02*
G37*
G36*
X565773D02*
D01*
Y414059D01*
X561844D01*
Y416232D01*
X565385D01*
Y416990D01*
X561844D01*
Y418941D01*
X565625D01*
Y419699D01*
X560993D01*
Y413301D01*
X565773D01*
Y419699D01*
D02*
G37*
G36*
X583460D02*
X578394D01*
Y418941D01*
X580502D01*
Y413301D01*
X581352D01*
Y418941D01*
X583460D01*
Y413301D01*
D01*
D01*
Y419699D01*
D02*
G37*
G36*
X560161D02*
D01*
Y413301D01*
X559061Y415039D01*
X558932Y415224D01*
X558811Y415391D01*
X558691Y415529D01*
X558590Y415659D01*
X558497Y415751D01*
X558423Y415825D01*
X558377Y415871D01*
X558358Y415890D01*
X558284Y415945D01*
X558201Y416010D01*
X558035Y416112D01*
X557961Y416149D01*
X557905Y416186D01*
X557868Y416204D01*
X557850Y416213D01*
X558016Y416241D01*
X558173Y416269D01*
X558312Y416315D01*
X558451Y416352D01*
X558571Y416398D01*
X558682Y416454D01*
X558784Y416500D01*
X558876Y416546D01*
X558950Y416602D01*
X559024Y416648D01*
X559080Y416685D01*
X559126Y416722D01*
X559163Y416750D01*
X559190Y416777D01*
X559200Y416787D01*
X559209Y416796D01*
X559283Y416888D01*
X559357Y416981D01*
X559468Y417175D01*
X559542Y417369D01*
X559597Y417554D01*
X559634Y417711D01*
X559644Y417776D01*
Y417841D01*
X559653Y417887D01*
Y417924D01*
Y417942D01*
Y417952D01*
X559644Y418146D01*
X559616Y418321D01*
X559570Y418488D01*
X559523Y418627D01*
X559468Y418747D01*
X559431Y418839D01*
X559394Y418895D01*
X559385Y418904D01*
Y418913D01*
X559274Y419061D01*
X559163Y419190D01*
X559043Y419301D01*
X558932Y419385D01*
X558830Y419449D01*
X558747Y419486D01*
X558691Y419514D01*
X558682Y419523D01*
X558673D01*
X558590Y419551D01*
X558488Y419579D01*
X558284Y419625D01*
X558063Y419653D01*
X557859Y419680D01*
X557665Y419690D01*
X557582D01*
X557508Y419699D01*
X560161D01*
X554540D01*
Y413301D01*
X555391D01*
Y416139D01*
X556482D01*
X556583Y416130D01*
X556657D01*
X556722Y416121D01*
X556768Y416112D01*
X556805D01*
X556824Y416102D01*
X556833D01*
X556981Y416056D01*
X557045Y416029D01*
X557101Y416001D01*
X557156Y415973D01*
X557193Y415955D01*
X557212Y415945D01*
X557221Y415936D01*
X557295Y415881D01*
X557369Y415816D01*
X557508Y415677D01*
X557572Y415612D01*
X557619Y415557D01*
X557646Y415520D01*
X557656Y415511D01*
X557748Y415381D01*
X557850Y415243D01*
X557952Y415095D01*
X558053Y414956D01*
X558136Y414827D01*
X558201Y414725D01*
X558229Y414688D01*
X558247Y414660D01*
X558266Y414642D01*
Y414632D01*
X559107Y413301D01*
X560161D01*
Y419699D01*
D02*
G37*
%LPD*%
G36*
X557656Y418978D02*
X557868Y418941D01*
X558053Y418895D01*
X558192Y418839D01*
X558312Y418784D01*
X558386Y418737D01*
X558432Y418700D01*
X558451Y418691D01*
X558562Y418571D01*
X558645Y418451D01*
X558700Y418321D01*
X558747Y418210D01*
X558765Y418100D01*
X558774Y418016D01*
X558784Y417961D01*
Y417952D01*
Y417942D01*
X558774Y417831D01*
X558756Y417720D01*
X558728Y417628D01*
X558700Y417545D01*
X558663Y417471D01*
X558636Y417415D01*
X558617Y417378D01*
X558608Y417369D01*
X558543Y417277D01*
X558460Y417193D01*
X558377Y417129D01*
X558294Y417073D01*
X558220Y417036D01*
X558164Y417009D01*
X558127Y416990D01*
X558109Y416981D01*
X557979Y416944D01*
X557831Y416916D01*
X557683Y416898D01*
X557536Y416888D01*
X557406Y416879D01*
X557295Y416870D01*
X555391D01*
Y418987D01*
X557406D01*
X557656Y418978D01*
D02*
G37*
%LPC*%
G36*
X619510Y419810D02*
D01*
Y416482D01*
X619491Y416833D01*
X619454Y417156D01*
X619427Y417304D01*
X619390Y417452D01*
X619353Y417582D01*
X619325Y417702D01*
X619288Y417813D01*
X619251Y417915D01*
X619223Y417998D01*
X619186Y418072D01*
X619168Y418127D01*
X619149Y418164D01*
X619131Y418192D01*
Y418201D01*
X618983Y418469D01*
X618807Y418710D01*
X618622Y418913D01*
X618456Y419080D01*
X618299Y419209D01*
X618225Y419264D01*
X618169Y419311D01*
X618114Y419338D01*
X618077Y419366D01*
X618058Y419375D01*
X618049Y419385D01*
X617910Y419459D01*
X617772Y419523D01*
X617504Y419634D01*
X617226Y419708D01*
X616986Y419754D01*
X616875Y419773D01*
X616764Y419791D01*
X616681Y419801D01*
X616598D01*
X616533Y419810D01*
X616450D01*
X616200Y419801D01*
X615969Y419773D01*
X615747Y419727D01*
X615534Y419671D01*
X615340Y419597D01*
X615155Y419523D01*
X614989Y419440D01*
X614841Y419357D01*
X614702Y419274D01*
X614582Y419190D01*
X614480Y419117D01*
X614397Y419043D01*
X614332Y418987D01*
X614277Y418941D01*
X614249Y418913D01*
X614240Y418904D01*
X614092Y418728D01*
X613963Y418543D01*
X613842Y418340D01*
X613750Y418136D01*
X613667Y417924D01*
X613593Y417720D01*
X613537Y417517D01*
X613500Y417323D01*
X613463Y417138D01*
X613436Y416962D01*
X613417Y416805D01*
X613399Y416676D01*
Y416565D01*
X613389Y416482D01*
Y416408D01*
X613408Y416093D01*
X613445Y415807D01*
X613500Y415529D01*
X613537Y415409D01*
X613574Y415289D01*
X613602Y415187D01*
X613639Y415095D01*
X613667Y415011D01*
X613694Y414938D01*
X613713Y414882D01*
X613731Y414845D01*
X613750Y414817D01*
Y414808D01*
X613907Y414540D01*
X614073Y414309D01*
X614258Y414105D01*
X614434Y413939D01*
X614591Y413800D01*
X614656Y413745D01*
X614711Y413708D01*
X614767Y413671D01*
X614804Y413643D01*
X614822Y413634D01*
X614832Y413625D01*
X614970Y413551D01*
X615109Y413486D01*
X615386Y413375D01*
X615654Y413301D01*
X615904Y413246D01*
X616024Y413227D01*
X616126Y413218D01*
X616218Y413199D01*
X616302D01*
X616357Y413190D01*
X619510D01*
Y419810D01*
D02*
G37*
G36*
X631843Y419699D02*
X627063D01*
Y413301D01*
X631843D01*
Y419699D01*
D02*
G37*
G36*
X625889D02*
X620601D01*
Y413301D01*
X622903D01*
X623116Y413310D01*
X623310Y413320D01*
X623485Y413338D01*
X623633Y413357D01*
X623763Y413375D01*
X623855Y413384D01*
X623883Y413394D01*
X623911Y413403D01*
X623929D01*
X624096Y413449D01*
X624244Y413504D01*
X624373Y413551D01*
X624484Y413606D01*
X624576Y413652D01*
X624641Y413689D01*
X624678Y413717D01*
X624697Y413726D01*
X624817Y413810D01*
X624919Y413911D01*
X625020Y414004D01*
X625103Y414096D01*
X625177Y414179D01*
X625233Y414244D01*
X625270Y414290D01*
X625279Y414309D01*
X625372Y414457D01*
X625464Y414614D01*
X625538Y414762D01*
X625593Y414910D01*
X625649Y415039D01*
X625686Y415141D01*
X625695Y415178D01*
X625704Y415206D01*
X625714Y415224D01*
Y415233D01*
X625769Y415455D01*
X625815Y415677D01*
X625843Y415890D01*
X625871Y416093D01*
X625880Y416269D01*
Y416343D01*
X625889Y416408D01*
Y413301D01*
D01*
Y419699D01*
D02*
G37*
G36*
X612271D02*
X606169D01*
Y413301D01*
X606982D01*
Y418747D01*
X608831Y413301D01*
X609589D01*
X611457Y418654D01*
Y413301D01*
X612271D01*
Y419699D01*
D02*
G37*
%LPD*%
G36*
X616681Y419070D02*
X616903Y419033D01*
X617097Y418978D01*
X617263Y418922D01*
X617402Y418858D01*
X617457Y418830D01*
X617504Y418811D01*
X617550Y418784D01*
X617578Y418774D01*
X617587Y418756D01*
X617596D01*
X617772Y418627D01*
X617929Y418479D01*
X618068Y418331D01*
X618178Y418183D01*
X618262Y418053D01*
X618326Y417942D01*
X618345Y417905D01*
X618363Y417878D01*
X618373Y417859D01*
Y417850D01*
X618465Y417628D01*
X618530Y417388D01*
X618576Y417166D01*
X618604Y416953D01*
X618622Y416851D01*
X618632Y416768D01*
Y416685D01*
X618641Y416620D01*
Y416565D01*
Y416528D01*
Y416500D01*
Y416491D01*
X618632Y416269D01*
X618613Y416056D01*
X618585Y415853D01*
X618548Y415668D01*
X618493Y415502D01*
X618447Y415344D01*
X618391Y415196D01*
X618336Y415067D01*
X618271Y414956D01*
X618215Y414854D01*
X618169Y414771D01*
X618123Y414706D01*
X618077Y414651D01*
X618049Y414605D01*
X618031Y414586D01*
X618021Y414577D01*
X617901Y414457D01*
X617772Y414355D01*
X617642Y414272D01*
X617513Y414189D01*
X617383Y414124D01*
X617245Y414078D01*
X617124Y414031D01*
X616995Y413994D01*
X616884Y413967D01*
X616773Y413948D01*
X616681Y413930D01*
X616598Y413921D01*
X616533D01*
X616487Y413911D01*
X616440D01*
X616265Y413921D01*
X616098Y413939D01*
X615950Y413976D01*
X615802Y414013D01*
X615664Y414068D01*
X615534Y414124D01*
X615414Y414179D01*
X615303Y414244D01*
X615211Y414309D01*
X615127Y414364D01*
X615053Y414420D01*
X614989Y414475D01*
X614943Y414512D01*
X614906Y414549D01*
X614887Y414568D01*
X614878Y414577D01*
X614767Y414706D01*
X614674Y414845D01*
X614591Y414993D01*
X614517Y415141D01*
X614462Y415298D01*
X614406Y415446D01*
X614332Y415742D01*
X614314Y415871D01*
X614295Y416001D01*
X614277Y416112D01*
X614268Y416204D01*
X614258Y416287D01*
Y416352D01*
Y416389D01*
Y416398D01*
X614268Y416657D01*
X614286Y416898D01*
X614314Y417129D01*
X614360Y417332D01*
X614406Y417517D01*
X614462Y417683D01*
X614526Y417841D01*
X614582Y417970D01*
X614647Y418090D01*
X614702Y418192D01*
X614758Y418275D01*
X614804Y418340D01*
X614850Y418395D01*
X614878Y418432D01*
X614896Y418451D01*
X614906Y418460D01*
X615026Y418571D01*
X615155Y418663D01*
X615285Y418747D01*
X615423Y418821D01*
X615553Y418876D01*
X615682Y418932D01*
X615923Y419006D01*
X616034Y419024D01*
X616135Y419043D01*
X616218Y419061D01*
X616302Y419070D01*
X616366Y419080D01*
X616450D01*
X616681Y419070D01*
D02*
G37*
G36*
X619510Y413190D02*
X616450D01*
X616755Y413209D01*
X617041Y413255D01*
X617309Y413310D01*
X617430Y413347D01*
X617541Y413384D01*
X617642Y413421D01*
X617735Y413458D01*
X617809Y413486D01*
X617873Y413514D01*
X617929Y413541D01*
X617975Y413560D01*
X617994Y413578D01*
X618003D01*
X618262Y413745D01*
X618484Y413930D01*
X618669Y414124D01*
X618826Y414309D01*
X618955Y414484D01*
X619001Y414549D01*
X619038Y414614D01*
X619075Y414669D01*
X619094Y414706D01*
X619112Y414734D01*
Y414743D01*
X619186Y414891D01*
X619242Y415039D01*
X619343Y415335D01*
X619417Y415631D01*
X619464Y415899D01*
X619473Y416019D01*
X619491Y416130D01*
X619501Y416232D01*
Y416315D01*
X619510Y416389D01*
Y413190D01*
D02*
G37*
G36*
X631843Y414059D02*
X627914D01*
Y416232D01*
X631455D01*
Y416990D01*
X627914D01*
Y418941D01*
X631696D01*
Y419699D01*
X631843D01*
Y414059D01*
D02*
G37*
G36*
X625889Y416528D02*
X625880Y416842D01*
X625852Y417129D01*
X625806Y417388D01*
X625788Y417508D01*
X625760Y417609D01*
X625732Y417711D01*
X625714Y417794D01*
X625695Y417868D01*
X625667Y417933D01*
X625658Y417989D01*
X625640Y418026D01*
X625630Y418044D01*
Y418053D01*
X625529Y418294D01*
X625409Y418506D01*
X625279Y418691D01*
X625159Y418848D01*
X625048Y418978D01*
X624955Y419070D01*
X624919Y419098D01*
X624891Y419126D01*
X624882Y419135D01*
X624872Y419144D01*
X624724Y419264D01*
X624567Y419357D01*
X624410Y419440D01*
X624262Y419505D01*
X624133Y419551D01*
X624031Y419579D01*
X623994Y419597D01*
X623966D01*
X623948Y419607D01*
X623938D01*
X623781Y419634D01*
X623596Y419662D01*
X623411Y419680D01*
X623227Y419690D01*
X623060Y419699D01*
X625889D01*
Y416528D01*
D02*
G37*
G36*
X623051Y418932D02*
X623171D01*
X623282Y418922D01*
X623467Y418895D01*
X623615Y418876D01*
X623735Y418848D01*
X623818Y418821D01*
X623865Y418811D01*
X623883Y418802D01*
X624049Y418719D01*
X624207Y418617D01*
X624345Y418497D01*
X624465Y418377D01*
X624558Y418266D01*
X624632Y418173D01*
X624650Y418136D01*
X624669Y418109D01*
X624687Y418090D01*
Y418081D01*
X624743Y417979D01*
X624798Y417859D01*
X624882Y417619D01*
X624937Y417360D01*
X624983Y417110D01*
X624992Y416999D01*
X625002Y416888D01*
X625011Y416796D01*
Y416713D01*
X625020Y416639D01*
Y416592D01*
Y416555D01*
Y416546D01*
X625011Y416287D01*
X624992Y416047D01*
X624965Y415834D01*
X624937Y415649D01*
X624919Y415575D01*
X624900Y415511D01*
X624882Y415446D01*
X624872Y415400D01*
X624863Y415363D01*
X624854Y415335D01*
X624845Y415317D01*
Y415307D01*
X624780Y415132D01*
X624706Y414975D01*
X624623Y414836D01*
X624549Y414716D01*
X624484Y414623D01*
X624428Y414558D01*
X624392Y414521D01*
X624382Y414503D01*
X624290Y414429D01*
X624197Y414364D01*
X624105Y414309D01*
X624012Y414253D01*
X623929Y414216D01*
X623865Y414189D01*
X623818Y414179D01*
X623800Y414170D01*
X623661Y414133D01*
X623495Y414105D01*
X623328Y414087D01*
X623171Y414078D01*
X623032Y414068D01*
X622968Y414059D01*
X621451D01*
Y418941D01*
X622931D01*
X623051Y418932D01*
D02*
G37*
G36*
X609599Y415243D02*
X609515Y415002D01*
X609451Y414799D01*
X609386Y414623D01*
X609340Y414475D01*
X609303Y414364D01*
X609275Y414281D01*
X609266Y414235D01*
X609257Y414216D01*
X609220Y414346D01*
X609173Y414494D01*
X609118Y414651D01*
X609072Y414808D01*
X609025Y414947D01*
X608988Y415058D01*
X608970Y415104D01*
X608961Y415132D01*
X608951Y415150D01*
Y415159D01*
X607435Y419699D01*
X611133D01*
X609599Y415243D01*
D02*
G37*
%LPC*%
G36*
X535264Y458810D02*
X532620D01*
X532315Y458791D01*
X532019Y458745D01*
X531760Y458690D01*
X531640Y458653D01*
X531529Y458616D01*
X531427Y458579D01*
X531335Y458542D01*
X531261Y458514D01*
X531187Y458486D01*
X531141Y458459D01*
X531104Y458440D01*
X531076Y458431D01*
X531067Y458422D01*
X530817Y458264D01*
X530604Y458079D01*
X530419Y457895D01*
X530262Y457710D01*
X530142Y457543D01*
X530096Y457469D01*
X530059Y457405D01*
X530022Y457358D01*
X530003Y457321D01*
X529994Y457294D01*
X529985Y457284D01*
X529855Y456998D01*
X529763Y456702D01*
X529698Y456406D01*
X529652Y456138D01*
X529633Y456018D01*
X529624Y455897D01*
X529615Y455805D01*
Y455713D01*
X529606Y455648D01*
Y455546D01*
X529624Y455213D01*
X529661Y454890D01*
X529707Y454603D01*
X529744Y454464D01*
X529772Y454344D01*
X529800Y454233D01*
X529837Y454132D01*
X529865Y454039D01*
X529883Y453965D01*
X529911Y453910D01*
X529920Y453863D01*
X529939Y453836D01*
Y453826D01*
X530077Y453549D01*
X530234Y453299D01*
X530401Y453087D01*
X530484Y453004D01*
X530558Y452920D01*
X530632Y452846D01*
X530706Y452782D01*
X530771Y452726D01*
X530826Y452689D01*
X530863Y452652D01*
X530900Y452625D01*
X530919Y452615D01*
X530928Y452606D01*
X531057Y452532D01*
X531187Y452467D01*
X531464Y452366D01*
X531741Y452292D01*
X532010Y452245D01*
X532139Y452227D01*
X532250Y452209D01*
X532352Y452199D01*
X532435D01*
X532509Y452190D01*
X532611D01*
X532795Y452199D01*
X532971Y452218D01*
X533138Y452236D01*
X533295Y452273D01*
X533443Y452319D01*
X533581Y452366D01*
X533711Y452412D01*
X533831Y452467D01*
X533933Y452514D01*
X534034Y452560D01*
X534108Y452606D01*
X534182Y452652D01*
X534229Y452689D01*
X534275Y452708D01*
X534293Y452726D01*
X534302Y452735D01*
X534432Y452846D01*
X534543Y452957D01*
X534645Y453087D01*
X534746Y453216D01*
X534913Y453475D01*
X535042Y453734D01*
X535098Y453854D01*
X535144Y453965D01*
X535181Y454067D01*
X535209Y454150D01*
X535236Y454224D01*
X535255Y454280D01*
X535264Y454316D01*
Y452551D01*
Y454316D01*
Y454363D01*
Y454326D01*
X534413Y454538D01*
X534376Y454390D01*
X534330Y454252D01*
X534284Y454122D01*
X534238Y454002D01*
X534182Y453891D01*
X534127Y453799D01*
X534062Y453706D01*
X534007Y453623D01*
X533960Y453549D01*
X533905Y453494D01*
X533859Y453438D01*
X533822Y453392D01*
X533785Y453364D01*
X533757Y453336D01*
X533748Y453327D01*
X533739Y453318D01*
X533646Y453244D01*
X533544Y453189D01*
X533341Y453087D01*
X533147Y453013D01*
X532953Y452967D01*
X532786Y452930D01*
X532721Y452920D01*
X532657D01*
X532601Y452911D01*
X532537D01*
X532324Y452920D01*
X532121Y452957D01*
X531936Y453004D01*
X531769Y453059D01*
X531640Y453115D01*
X531584Y453142D01*
X531538Y453161D01*
X531501Y453179D01*
X531473Y453198D01*
X531455Y453207D01*
X531446D01*
X531270Y453336D01*
X531122Y453475D01*
X530993Y453632D01*
X530891Y453780D01*
X530808Y453910D01*
X530752Y454021D01*
X530734Y454067D01*
X530715Y454095D01*
X530706Y454113D01*
Y454122D01*
X530632Y454363D01*
X530577Y454603D01*
X530530Y454843D01*
X530503Y455065D01*
X530493Y455167D01*
X530484Y455260D01*
Y455343D01*
X530475Y455407D01*
Y455463D01*
Y455509D01*
Y455537D01*
Y455546D01*
X530484Y455787D01*
X530503Y456008D01*
X530540Y456212D01*
X530577Y456397D01*
X530604Y456554D01*
X530623Y456619D01*
X530641Y456674D01*
X530650Y456720D01*
X530660Y456748D01*
X530669Y456767D01*
Y456776D01*
X530761Y456988D01*
X530863Y457183D01*
X530974Y457340D01*
X531094Y457478D01*
X531196Y457589D01*
X531279Y457663D01*
X531344Y457710D01*
X531353Y457728D01*
X531362D01*
X531557Y457848D01*
X531769Y457941D01*
X531973Y458005D01*
X532167Y458042D01*
X532342Y458070D01*
X532416Y458079D01*
X532481D01*
X532527Y458089D01*
X532601D01*
X532832Y458079D01*
X533045Y458042D01*
X533221Y457987D01*
X533378Y457932D01*
X533498Y457867D01*
X533591Y457821D01*
X533646Y457784D01*
X533665Y457765D01*
X533812Y457626D01*
X533951Y457469D01*
X534062Y457303D01*
X534155Y457136D01*
X534229Y456988D01*
X534256Y456915D01*
X534275Y456859D01*
X534293Y456813D01*
X534312Y456776D01*
X534321Y456757D01*
Y456748D01*
X535153Y456942D01*
X535098Y457109D01*
X535042Y457257D01*
X534968Y457395D01*
X534903Y457534D01*
X534829Y457654D01*
X534746Y457765D01*
X534672Y457876D01*
X534598Y457969D01*
X534524Y458042D01*
X534460Y458116D01*
X534395Y458181D01*
X534349Y458227D01*
X534302Y458274D01*
X534266Y458301D01*
X534247Y458311D01*
X534238Y458320D01*
X534108Y458403D01*
X533979Y458486D01*
X533849Y458551D01*
X533711Y458606D01*
X533433Y458690D01*
X533184Y458745D01*
X533064Y458773D01*
X532962Y458782D01*
X532860Y458791D01*
X532777Y458801D01*
X532712Y458810D01*
X535264D01*
D01*
D02*
G37*
G36*
X528690Y458699D02*
X523402D01*
Y452301D01*
X528690D01*
X525704D01*
X525917Y452310D01*
X526111Y452319D01*
X526287Y452338D01*
X526435Y452356D01*
X526564Y452375D01*
X526656Y452384D01*
X526684Y452393D01*
X526712Y452403D01*
X526730D01*
X526897Y452449D01*
X527045Y452504D01*
X527174Y452551D01*
X527285Y452606D01*
X527378Y452652D01*
X527442Y452689D01*
X527479Y452717D01*
X527498Y452726D01*
X527618Y452809D01*
X527720Y452911D01*
X527821Y453004D01*
X527905Y453096D01*
X527979Y453179D01*
X528034Y453244D01*
X528071Y453290D01*
X528080Y453309D01*
X528173Y453457D01*
X528265Y453614D01*
X528339Y453762D01*
X528395Y453910D01*
X528450Y454039D01*
X528487Y454141D01*
X528496Y454178D01*
X528506Y454206D01*
X528515Y454224D01*
Y454233D01*
X528570Y454455D01*
X528616Y454677D01*
X528644Y454890D01*
X528672Y455093D01*
X528681Y455269D01*
Y455343D01*
X528690Y455407D01*
Y455528D01*
X528681Y455842D01*
X528653Y456129D01*
X528607Y456388D01*
X528589Y456508D01*
X528561Y456609D01*
X528533Y456711D01*
X528515Y456794D01*
X528496Y456868D01*
X528469Y456933D01*
X528459Y456988D01*
X528441Y457025D01*
X528432Y457044D01*
Y457053D01*
X528330Y457294D01*
X528210Y457506D01*
X528080Y457691D01*
X527960Y457848D01*
X527849Y457978D01*
X527757Y458070D01*
X527720Y458098D01*
X527692Y458126D01*
X527683Y458135D01*
X527673Y458144D01*
X527525Y458264D01*
X527368Y458357D01*
X527211Y458440D01*
X527063Y458505D01*
X526934Y458551D01*
X526832Y458579D01*
X526795Y458597D01*
X526767D01*
X526749Y458606D01*
X526740D01*
X526582Y458634D01*
X526398Y458662D01*
X526213Y458680D01*
X526028Y458690D01*
X525861Y458699D01*
X528690D01*
D02*
G37*
G36*
X522718D02*
X516736D01*
X519177D01*
X516736Y452301D01*
X517806D01*
X517633D01*
X518326Y454243D01*
X521007D01*
X521756Y452301D01*
X522718D01*
X520101Y458699D01*
X522718D01*
D02*
G37*
G36*
X532509Y452190D02*
X529606D01*
X532509D01*
D01*
D02*
G37*
%LPD*%
G36*
X525852Y457932D02*
X525972D01*
X526083Y457922D01*
X526268Y457895D01*
X526416Y457876D01*
X526536Y457848D01*
X526619Y457821D01*
X526666Y457811D01*
X526684Y457802D01*
X526851Y457719D01*
X527008Y457617D01*
X527146Y457497D01*
X527267Y457377D01*
X527359Y457266D01*
X527433Y457173D01*
X527452Y457136D01*
X527470Y457109D01*
X527489Y457090D01*
Y457081D01*
X527544Y456979D01*
X527599Y456859D01*
X527683Y456619D01*
X527738Y456360D01*
X527784Y456110D01*
X527794Y455999D01*
X527803Y455888D01*
X527812Y455796D01*
Y455713D01*
X527821Y455639D01*
Y455592D01*
Y455555D01*
Y455546D01*
X527812Y455287D01*
X527794Y455047D01*
X527766Y454834D01*
X527738Y454649D01*
X527720Y454575D01*
X527701Y454511D01*
X527683Y454446D01*
X527673Y454400D01*
X527664Y454363D01*
X527655Y454335D01*
X527646Y454316D01*
Y454307D01*
X527581Y454132D01*
X527507Y453974D01*
X527424Y453836D01*
X527350Y453716D01*
X527285Y453623D01*
X527230Y453558D01*
X527193Y453521D01*
X527183Y453503D01*
X527091Y453429D01*
X526998Y453364D01*
X526906Y453309D01*
X526814Y453253D01*
X526730Y453216D01*
X526666Y453189D01*
X526619Y453179D01*
X526601Y453170D01*
X526462Y453133D01*
X526296Y453105D01*
X526129Y453087D01*
X525972Y453078D01*
X525834Y453068D01*
X525769Y453059D01*
X524253D01*
Y457941D01*
X525732D01*
X525852Y457932D01*
D02*
G37*
G36*
X519685Y457821D02*
X519759Y457599D01*
X519833Y457377D01*
X519907Y457164D01*
X519944Y457072D01*
X519972Y456979D01*
X520000Y456896D01*
X520027Y456831D01*
X520046Y456776D01*
X520064Y456730D01*
X520074Y456702D01*
Y456693D01*
X520739Y454936D01*
X518576D01*
X519269Y456804D01*
X519352Y457035D01*
X519417Y457257D01*
X519482Y457460D01*
X519528Y457645D01*
X519565Y457802D01*
X519584Y457867D01*
X519593Y457932D01*
X519611Y457969D01*
Y458005D01*
X519621Y458024D01*
Y458033D01*
X519685Y457821D01*
D02*
G37*
D10*
X517300Y237928D02*
G03*
X517300Y237928I-1000J0D01*
G01*
X585880Y238182D02*
G03*
X585880Y238182I-1000J0D01*
G01*
X448720Y237928D02*
G03*
X448720Y237928I-1000J0D01*
G01*
D11*
X348702Y298216D02*
G03*
X348702Y298216I-2500J0D01*
G01*
X483800Y219688D02*
X506500D01*
X525250Y166038D02*
Y211038D01*
X483800Y159788D02*
X506800D01*
X465300Y165738D02*
Y213738D01*
X552380Y219942D02*
X575080D01*
X593830Y166292D02*
Y211292D01*
X552380Y160042D02*
X575380D01*
X533880Y165992D02*
Y213992D01*
X415220Y219688D02*
X437920D01*
X456670Y166038D02*
Y211038D01*
X415220Y159788D02*
X438220D01*
X396720Y165738D02*
Y213738D01*
X501560Y410793D02*
Y430793D01*
X496560D02*
X501560D01*
Y270793D02*
Y290793D01*
X496560Y270793D02*
X501560D01*
X261560Y430793D02*
X336560D01*
X261560Y270793D02*
Y430793D01*
Y270793D02*
X336560D01*
X339160Y290793D02*
X489160D01*
Y410793D01*
X339160D02*
X489160D01*
X339160Y290793D02*
Y410793D01*
D12*
X455868Y463504D02*
Y489504D01*
Y463504D02*
X530868D01*
Y489504D01*
X455868D02*
X530868D01*
X544198Y406996D02*
X591198D01*
Y291996D02*
Y406996D01*
X544198Y291996D02*
X591198D01*
X544198D02*
Y406996D01*
X595506Y406488D02*
X642506D01*
Y291488D02*
Y406488D01*
X595506Y291488D02*
X642506D01*
X595506D02*
Y406488D01*
X519098Y386046D02*
X541098D01*
Y350046D02*
Y386046D01*
X519098Y350046D02*
X541098D01*
X519098D02*
Y386046D01*
X476538Y256364D02*
X512538D01*
X476538Y234364D02*
Y256364D01*
Y234364D02*
X512538D01*
Y256364D01*
X545118D02*
X581118D01*
X545118Y234364D02*
Y256364D01*
Y234364D02*
X581118D01*
Y256364D01*
X407958D02*
X443958D01*
X407958Y234364D02*
Y256364D01*
Y234364D02*
X443958D01*
Y256364D01*
X519098Y313724D02*
Y349724D01*
Y313724D02*
X541098D01*
Y349724D01*
X519098D02*
X541098D01*
X595410Y289130D02*
X631410D01*
X595410Y267130D02*
Y289130D01*
Y267130D02*
X631410D01*
Y289130D01*
X438794Y441120D02*
X474794D01*
Y463120D01*
X438794D02*
X474794D01*
X438794Y441120D02*
Y463120D01*
X474658D02*
X510658D01*
X474658Y441120D02*
Y463120D01*
Y441120D02*
X510658D01*
Y463120D01*
D13*
X455964Y557715D02*
X566566D01*
Y523817D02*
Y557715D01*
X455964Y523817D02*
X566566D01*
X455964D02*
Y557715D01*
X456001Y523425D02*
X566603D01*
Y489527D02*
Y523425D01*
X456001Y489527D02*
X566603D01*
X456001D02*
Y523425D01*
M02*
