G04*
G04 #@! TF.GenerationSoftware,Altium Limited,Altium Designer,19.0.15 (446)*
G04*
G04 Layer_Physical_Order=2*
G04 Layer_Color=16711680*
%FSLAX44Y44*%
%MOMM*%
G71*
G01*
G75*
%ADD15R,1.3000X0.9000*%
%ADD16R,0.7000X1.3000*%
%ADD17R,1.3000X0.7000*%
%ADD19R,1.2000X2.0000*%
%ADD37C,0.3810*%
%ADD38C,0.9000*%
%ADD39R,1.5300X1.5300*%
%ADD40C,1.5300*%
%ADD41C,0.9500*%
%ADD42C,2.0500*%
%ADD43O,1.2000X2.0000*%
%ADD44R,1.4980X1.4980*%
%ADD45C,1.4980*%
%ADD46C,1.6200*%
%ADD47C,0.6000*%
%ADD48R,0.7000X1.5000*%
%ADD49R,1.0000X0.8000*%
G04:AMPARAMS|DCode=50|XSize=1.97mm|YSize=0.59mm|CornerRadius=0.0738mm|HoleSize=0mm|Usage=FLASHONLY|Rotation=0.000|XOffset=0mm|YOffset=0mm|HoleType=Round|Shape=RoundedRectangle|*
%AMROUNDEDRECTD50*
21,1,1.9700,0.4425,0,0,0.0*
21,1,1.8225,0.5900,0,0,0.0*
1,1,0.1475,0.9113,-0.2213*
1,1,0.1475,-0.9113,-0.2213*
1,1,0.1475,-0.9113,0.2213*
1,1,0.1475,0.9113,0.2213*
%
%ADD50ROUNDEDRECTD50*%
%ADD51R,1.3500X1.0000*%
%ADD52R,0.6000X1.2000*%
%ADD53R,3.4999X2.5000*%
%ADD54R,0.9000X1.3000*%
%ADD55R,1.0000X0.5500*%
%ADD56O,1.5000X0.4000*%
%ADD57R,1.3000X1.6500*%
%ADD58R,1.9000X1.0000*%
%ADD59R,1.9000X1.8000*%
%ADD60R,1.5500X1.4250*%
%ADD61R,1.3800X0.4500*%
G36*
X484000Y463000D02*
X459000D01*
Y531000D01*
X433000D01*
Y551000D01*
X431587D01*
X431504Y552270D01*
X433003Y552467D01*
X434584Y553122D01*
X435942Y554164D01*
X436984Y555522D01*
X437639Y557103D01*
X437862Y558800D01*
X437639Y560497D01*
X436984Y562078D01*
X435942Y563436D01*
X434584Y564478D01*
X433003Y565133D01*
X431306Y565356D01*
X429609Y565133D01*
X428028Y564478D01*
X426670Y563436D01*
X425628Y562078D01*
X424973Y560497D01*
X424750Y558800D01*
X424973Y557103D01*
X425628Y555522D01*
X426670Y554164D01*
X428028Y553122D01*
X429609Y552467D01*
X431108Y552270D01*
X431025Y551000D01*
X417000D01*
Y486000D01*
X405408D01*
X403606Y486237D01*
X401804Y486000D01*
X394000D01*
Y477471D01*
X393873Y476504D01*
X394000Y475537D01*
Y408000D01*
X387736D01*
X386560Y408234D01*
X385384Y408000D01*
X381000D01*
Y295000D01*
X400000D01*
Y292000D01*
X441000D01*
Y282000D01*
X456000D01*
Y267000D01*
X482000D01*
Y336000D01*
X512000D01*
Y328000D01*
X517000D01*
X521000Y324000D01*
Y319000D01*
X551000D01*
Y309000D01*
X571000D01*
Y241000D01*
X394000D01*
Y256000D01*
X433000D01*
Y282000D01*
X357000D01*
Y394803D01*
X357197Y395000D01*
X372000D01*
Y409000D01*
X336000D01*
Y561530D01*
X346470Y572000D01*
X372806D01*
Y562800D01*
X386806D01*
Y572000D01*
X445806D01*
Y562800D01*
X459806D01*
Y572000D01*
X484000D01*
Y463000D01*
D02*
G37*
G36*
X405142Y483978D02*
X405276Y483987D01*
X405408Y483961D01*
X414000D01*
Y417000D01*
X452000D01*
Y398000D01*
X417000D01*
Y394764D01*
X416950D01*
Y381764D01*
X417000D01*
Y356750D01*
X444000D01*
Y346000D01*
X435000Y345948D01*
X402026Y345948D01*
X401975Y397102D01*
X402873Y398000D01*
X412000D01*
Y408000D01*
X407736D01*
X406560Y408234D01*
X405384Y408000D01*
X397000D01*
Y483961D01*
X401804D01*
X401936Y483987D01*
X402070Y483978D01*
X402235Y484000D01*
X404977D01*
X405142Y483978D01*
D02*
G37*
G36*
X430000Y528000D02*
X456000D01*
Y459000D01*
X541000D01*
Y406000D01*
X545000D01*
Y391039D01*
X537000D01*
Y393000D01*
X507000D01*
Y410000D01*
X521000D01*
Y430000D01*
X508000D01*
Y426000D01*
X452000D01*
Y420000D01*
X420000D01*
Y548961D01*
X430000D01*
Y528000D01*
D02*
G37*
G36*
X628000Y429000D02*
X602000D01*
Y404000D01*
X598000D01*
Y382000D01*
X626000D01*
Y378000D01*
X580000D01*
Y384000D01*
X539000D01*
Y353000D01*
X546000D01*
Y331000D01*
X527000D01*
Y389000D01*
X573000D01*
Y406000D01*
X587000D01*
Y466000D01*
X543000D01*
Y482000D01*
X628000D01*
Y429000D01*
D02*
G37*
G36*
X656000Y560000D02*
Y322000D01*
X601000D01*
Y348000D01*
X609000D01*
Y356000D01*
X633000D01*
Y385000D01*
X600039D01*
Y401961D01*
X602000D01*
X602197Y402000D01*
X605000D01*
Y426000D01*
X631000D01*
Y485000D01*
X560000D01*
Y552000D01*
X510000D01*
Y463000D01*
X487000D01*
Y572000D01*
X644000D01*
X656000Y560000D01*
D02*
G37*
G36*
X397000Y315000D02*
X433000D01*
Y295000D01*
X403000D01*
Y298000D01*
X384000D01*
Y327000D01*
X397000D01*
Y315000D01*
D02*
G37*
G36*
X524961Y331000D02*
X525000Y330803D01*
Y328000D01*
X549000D01*
Y353000D01*
X586000Y353000D01*
X586000Y294000D01*
X593000D01*
X598000Y289000D01*
Y209000D01*
X394000Y209000D01*
Y238000D01*
X574000D01*
Y312000D01*
X572000D01*
Y348000D01*
X559000D01*
Y326762D01*
X551928D01*
Y326000D01*
X551000D01*
Y322000D01*
X524899D01*
X524001Y322899D01*
X524004Y324996D01*
X518000Y331000D01*
X514039D01*
Y336000D01*
X514000Y336197D01*
Y339000D01*
X503000D01*
X503000Y346000D01*
X481000D01*
X481000Y387000D01*
X524961D01*
Y331000D01*
D02*
G37*
%LPC*%
G36*
X401306Y565356D02*
X399609Y565133D01*
X398028Y564478D01*
X396670Y563436D01*
X395628Y562078D01*
X394973Y560497D01*
X394750Y558800D01*
X394973Y557103D01*
X395628Y555522D01*
X396670Y554164D01*
X398028Y553122D01*
X399609Y552467D01*
X401306Y552244D01*
X403003Y552467D01*
X404584Y553122D01*
X405942Y554164D01*
X406984Y555522D01*
X407639Y557103D01*
X407862Y558800D01*
X407639Y560497D01*
X406984Y562078D01*
X405942Y563436D01*
X404584Y564478D01*
X403003Y565133D01*
X401306Y565356D01*
D02*
G37*
G36*
X459806Y554800D02*
X445806D01*
Y542800D01*
X459806D01*
Y554800D01*
D02*
G37*
G36*
X386806D02*
X372806D01*
Y542800D01*
X386806D01*
Y554800D01*
D02*
G37*
G36*
X399306Y550800D02*
X388306D01*
Y531800D01*
X399306D01*
Y550800D01*
D02*
G37*
G36*
X375263Y533149D02*
X372066Y532728D01*
X369086Y531494D01*
X366527Y529530D01*
X364563Y526971D01*
X363329Y523991D01*
X362908Y520793D01*
X363329Y517596D01*
X364563Y514616D01*
X366527Y512057D01*
X369086Y510093D01*
X372066Y508859D01*
X375263Y508438D01*
X378461Y508859D01*
X381441Y510093D01*
X384000Y512057D01*
X385964Y514616D01*
X387198Y517596D01*
X387619Y520793D01*
X387198Y523991D01*
X385964Y526971D01*
X384000Y529530D01*
X381441Y531494D01*
X378461Y532728D01*
X375263Y533149D01*
D02*
G37*
G36*
X615263D02*
X612066Y532728D01*
X609086Y531494D01*
X606527Y529530D01*
X604563Y526971D01*
X603329Y523991D01*
X602908Y520793D01*
X603329Y517596D01*
X604563Y514616D01*
X606527Y512057D01*
X609086Y510093D01*
X612066Y508859D01*
X615263Y508438D01*
X618461Y508859D01*
X621441Y510093D01*
X624000Y512057D01*
X625964Y514616D01*
X627198Y517596D01*
X627619Y520793D01*
X627198Y523991D01*
X625964Y526971D01*
X624000Y529530D01*
X621441Y531494D01*
X618461Y532728D01*
X615263Y533149D01*
D02*
G37*
G36*
X497498Y365368D02*
X486498D01*
X484937Y365057D01*
X483614Y364173D01*
X482730Y362850D01*
X482420Y361290D01*
X482730Y359729D01*
X483614Y358406D01*
X484937Y357522D01*
X486498Y357211D01*
X497498D01*
X499059Y357522D01*
X500382Y358406D01*
X501266Y359729D01*
X501576Y361290D01*
X501266Y362850D01*
X500382Y364173D01*
X499059Y365057D01*
X497498Y365368D01*
D02*
G37*
G36*
X595870Y231982D02*
X576890D01*
Y213002D01*
X595870D01*
Y231982D01*
D02*
G37*
G36*
X527290Y231728D02*
X508310D01*
Y212748D01*
X527290D01*
Y231728D01*
D02*
G37*
G36*
X458710D02*
X439730D01*
Y212748D01*
X458710D01*
Y231728D01*
D02*
G37*
%LPD*%
D15*
X391414Y288188D02*
D03*
Y307188D02*
D03*
X425450Y388264D02*
D03*
Y407264D02*
D03*
X516636Y381660D02*
D03*
Y400660D02*
D03*
D16*
X533248Y420116D02*
D03*
X514248D02*
D03*
X576428Y318262D02*
D03*
X557428D02*
D03*
D17*
X574548Y436220D02*
D03*
Y417220D02*
D03*
X494538Y400660D02*
D03*
Y381660D02*
D03*
X552450Y436220D02*
D03*
Y417220D02*
D03*
D19*
X467868Y476504D02*
D03*
D37*
X604012Y209012D02*
Y288798D01*
X599216Y204216D02*
X604012Y209012D01*
X355092Y204216D02*
X599216D01*
X609822Y206578D02*
Y291205D01*
X601650Y198406D02*
X609822Y206578D01*
X350234Y198406D02*
X601650D01*
X436880Y320802D02*
X446278Y311404D01*
X410418Y320802D02*
X436880D01*
X386560Y344660D02*
X410418Y320802D01*
X452088Y302800D02*
Y317718D01*
X442806Y327000D02*
X452088Y317718D01*
X413000Y327000D02*
X442806D01*
X392370Y347630D02*
X413000Y327000D01*
X386560Y344660D02*
Y403136D01*
X392370Y347630D02*
Y396180D01*
X338328Y210312D02*
X350234Y198406D01*
X344170Y215138D02*
X355092Y204216D01*
X338328Y210312D02*
Y257048D01*
X344170Y215138D02*
Y254673D01*
X368046Y255016D02*
X375158Y262128D01*
X368046Y237998D02*
Y255016D01*
X375158Y262128D02*
X419496D01*
X355346Y257633D02*
X372541Y274828D01*
X419496D01*
X355346Y237998D02*
Y257633D01*
X352044Y262547D02*
Y395478D01*
X344170Y254673D02*
X352044Y262547D01*
X346202Y264922D02*
Y402590D01*
X338328Y257048D02*
X346202Y264922D01*
X557682Y318516D02*
X563626D01*
X557428Y318262D02*
X557682Y318516D01*
X563626D02*
X565912Y320802D01*
Y339090D01*
X574548Y436220D02*
Y454312D01*
X552450Y436220D02*
Y454312D01*
X571548Y417220D02*
X574548D01*
X565912Y411584D02*
X571548Y417220D01*
X565912Y397256D02*
Y411584D01*
X552450Y417220D02*
X553212Y416458D01*
Y397256D02*
Y416458D01*
X460756Y420878D02*
X513486D01*
X514248Y420116D01*
X456946Y417068D02*
X460756Y420878D01*
X456946Y394408D02*
Y417068D01*
X454714Y392176D02*
X456946Y394408D01*
X445231Y392176D02*
X454714D01*
X463296Y399288D02*
X465683Y401675D01*
X463296Y345948D02*
Y399288D01*
X459130Y341782D02*
X463296Y345948D01*
X427990Y341782D02*
X459130D01*
X465683Y401675D02*
X473233D01*
X478536Y341782D02*
X491998D01*
X473233Y347085D02*
X478536Y341782D01*
X473233Y347085D02*
Y382677D01*
X429362Y392176D02*
X445231D01*
X425450Y388264D02*
X429362Y392176D01*
X494284Y394208D02*
Y400406D01*
X494538Y400660D01*
X492252Y392176D02*
X494284Y394208D01*
X473233Y392176D02*
X492252D01*
X454660Y300228D02*
X468996D01*
X452088Y302800D02*
X454660Y300228D01*
X399326Y403136D02*
X406560D01*
X392370Y396180D02*
X399326Y403136D01*
X450596Y287528D02*
X468996D01*
X446278Y291846D02*
X450596Y287528D01*
X446278Y291846D02*
Y311404D01*
X359410Y402844D02*
X366268D01*
X352044Y395478D02*
X359410Y402844D01*
X598648Y373185D02*
X618215D01*
X590535Y365072D02*
X598648Y373185D01*
X618215D02*
X618560Y373530D01*
X590535Y302275D02*
X604012Y288798D01*
X590535Y302275D02*
Y365072D01*
X596345Y304682D02*
X609822Y291205D01*
X596345Y304682D02*
Y362665D01*
X600710Y367030D01*
X618560D01*
X603250Y354330D02*
Y359156D01*
X604624Y360530D01*
X618560D01*
D38*
X401306Y558800D02*
D03*
X431306D02*
D03*
D39*
X429006Y476504D02*
D03*
D40*
X403606D02*
D03*
D41*
X355346Y237998D02*
D03*
X368046D02*
D03*
D42*
X375263Y520793D02*
D03*
X615263D02*
D03*
Y180793D02*
D03*
X375263D02*
D03*
D43*
X518668Y476504D02*
D03*
X493268D02*
D03*
D44*
X517800Y222238D02*
D03*
X586380Y222492D02*
D03*
X449220Y222238D02*
D03*
D45*
X472800D02*
D03*
Y157238D02*
D03*
X517800D02*
D03*
X541380Y222492D02*
D03*
Y157492D02*
D03*
X586380D02*
D03*
X404220Y222238D02*
D03*
Y157238D02*
D03*
X449220D02*
D03*
D46*
X549365Y540766D02*
D03*
X523965D02*
D03*
X498565D02*
D03*
X473165D02*
D03*
X549402Y506476D02*
D03*
X524002D02*
D03*
X498602D02*
D03*
X473202D02*
D03*
D47*
X391414Y322580D02*
D03*
X516636Y366776D02*
D03*
X604012Y397764D02*
D03*
X517144Y322580D02*
D03*
X501952Y275539D02*
D03*
X538226Y245618D02*
D03*
X469646D02*
D03*
X401066D02*
D03*
X406560Y403136D02*
D03*
X386560D02*
D03*
X366268Y402844D02*
D03*
X346202Y402590D02*
D03*
X603250Y354330D02*
D03*
D48*
X393806Y541300D02*
D03*
X423806D02*
D03*
X438806D02*
D03*
D49*
X452806Y548800D02*
D03*
Y568800D02*
D03*
X379806D02*
D03*
Y548800D02*
D03*
D50*
X419496Y262128D02*
D03*
Y274828D02*
D03*
Y287528D02*
D03*
Y300228D02*
D03*
X468996D02*
D03*
Y287528D02*
D03*
Y274828D02*
D03*
Y262128D02*
D03*
D51*
X552450Y474312D02*
D03*
Y454312D02*
D03*
X574548Y474312D02*
D03*
Y454312D02*
D03*
D52*
X578612Y339090D02*
D03*
X565912D02*
D03*
X553212D02*
D03*
X540512D02*
D03*
Y397256D02*
D03*
X553212D02*
D03*
X565912D02*
D03*
X578612D02*
D03*
D53*
X559562Y368173D02*
D03*
D54*
X594004Y419608D02*
D03*
X613004D02*
D03*
D55*
X473233Y382677D02*
D03*
Y392176D02*
D03*
Y401675D02*
D03*
X445231D02*
D03*
Y392176D02*
D03*
Y382677D02*
D03*
D56*
X491998Y361290D02*
D03*
Y354787D02*
D03*
Y348285D02*
D03*
Y341782D02*
D03*
X427990Y361290D02*
D03*
Y354787D02*
D03*
Y348285D02*
D03*
Y341782D02*
D03*
D57*
X645160Y333280D02*
D03*
Y400780D02*
D03*
D58*
Y351530D02*
D03*
D59*
Y378530D02*
D03*
D60*
X619410Y391905D02*
D03*
Y342155D02*
D03*
D61*
X618560Y354030D02*
D03*
Y360530D02*
D03*
Y367030D02*
D03*
Y373530D02*
D03*
Y380030D02*
D03*
M02*
