M48
;Layer_Color=9474304
;FILE_FORMAT=4:4
METRIC,LZ
;TYPE=PLATED
T1F00S00C0.3000
T2F00S00C0.5500
T3F00S00C0.9900
T4F00S00C1.0000
T5F00S00C1.0200
T6F00S00C1.0201
T7F00S00C2.0000
;TYPE=NON_PLATED
T8F00S00C0.9000
%
T01
X00391414Y0032258
X00401066Y00245618
X00469646
X00501952Y00275539
X00517144Y0032258
X00516636Y00366776
X0060325Y0035433
X00538226Y00245618
X00604012Y00397764
X0040656Y00403136
X0038656
X00366268Y00402844
X00346202Y0040259
T02
X00355346Y00237998
X00368046
T03
X0040422Y00157238
X0044922
X004728
X005178
X0054138Y00157492
X0058638
Y00222492
X0054138
X005178Y00222238
X004728
X0044922
X0040422
T04
X00467868Y00476504
X00493268
X00518668
T05
X00403606Y00476504
X00429006
T06
X00473202Y00506476
X00498602
X00524002
X00549402
X00549365Y00540766
X00523965
X00498565
X00473165
T07
X00375263Y00180793
X00615263
Y00520793
X00375263
T08
X00401306Y005588
X00431306
M30
