G04*
G04 #@! TF.GenerationSoftware,Altium Limited,Altium Designer,19.0.15 (446)*
G04*
G04 Layer_Color=32896*
%FSLAX44Y44*%
%MOMM*%
G71*
G01*
G75*
%ADD10C,0.3000*%
%ADD11C,0.1270*%
%ADD12C,0.2000*%
%ADD76C,0.2540*%
G36*
X528750Y448500D02*
X508750D01*
Y458500D01*
X528750D01*
Y448500D01*
D02*
G37*
G36*
X511500Y554164D02*
X491500D01*
Y564164D01*
X511500D01*
Y554164D01*
D02*
G37*
G36*
X558000Y554000D02*
X538000D01*
Y564000D01*
X558000D01*
Y554000D01*
D02*
G37*
G36*
X534000Y554164D02*
X514000D01*
Y564164D01*
X534000D01*
Y554164D01*
D02*
G37*
G36*
X488750D02*
X463750D01*
Y564164D01*
X488750D01*
Y554164D01*
D02*
G37*
G36*
X437250Y491500D02*
X422250D01*
Y506500D01*
X437250D01*
Y491500D01*
D02*
G37*
%LPC*%
G36*
X515144Y456810D02*
Y453648D01*
X515135Y453713D01*
Y453805D01*
X515126Y453898D01*
X515117Y454018D01*
X515098Y454138D01*
X515052Y454406D01*
X514987Y454702D01*
X514895Y454998D01*
X514765Y455284D01*
X514756Y455294D01*
X514747Y455321D01*
X514728Y455358D01*
X514691Y455405D01*
X514654Y455469D01*
X514608Y455543D01*
X514488Y455710D01*
X514331Y455895D01*
X514146Y456079D01*
X513933Y456264D01*
X513683Y456422D01*
X513674Y456431D01*
X513646Y456440D01*
X513609Y456459D01*
X513563Y456486D01*
X513489Y456514D01*
X513415Y456542D01*
X513323Y456579D01*
X513221Y456616D01*
X513110Y456653D01*
X512990Y456690D01*
X512731Y456745D01*
X512435Y456791D01*
X512130Y456810D01*
X515144D01*
X509486D01*
X512038D01*
X511973Y456801D01*
X511890Y456791D01*
X511788Y456782D01*
X511686Y456773D01*
X511566Y456745D01*
X511316Y456690D01*
X511039Y456606D01*
X510900Y456551D01*
X510771Y456486D01*
X510642Y456403D01*
X510512Y456320D01*
X510503Y456311D01*
X510484Y456301D01*
X510447Y456274D01*
X510401Y456227D01*
X510355Y456181D01*
X510290Y456116D01*
X510225Y456043D01*
X510152Y455969D01*
X510078Y455876D01*
X510004Y455765D01*
X509920Y455654D01*
X509846Y455534D01*
X509782Y455395D01*
X509708Y455257D01*
X509652Y455109D01*
X509597Y454942D01*
X510429Y454748D01*
Y454757D01*
X510438Y454776D01*
X510457Y454813D01*
X510475Y454859D01*
X510494Y454915D01*
X510521Y454989D01*
X510595Y455136D01*
X510688Y455303D01*
X510799Y455469D01*
X510938Y455626D01*
X511085Y455765D01*
X511104Y455784D01*
X511159Y455821D01*
X511252Y455867D01*
X511372Y455932D01*
X511529Y455987D01*
X511705Y456043D01*
X511917Y456079D01*
X512149Y456089D01*
X512223D01*
X512269Y456079D01*
X512333D01*
X512407Y456070D01*
X512583Y456043D01*
X512777Y456006D01*
X512981Y455941D01*
X513193Y455848D01*
X513387Y455728D01*
X513397D01*
X513406Y455710D01*
X513471Y455663D01*
X513554Y455589D01*
X513656Y455479D01*
X513776Y455340D01*
X513887Y455183D01*
X513988Y454989D01*
X514081Y454776D01*
Y454767D01*
X514090Y454748D01*
X514100Y454720D01*
X514109Y454674D01*
X514127Y454619D01*
X514146Y454554D01*
X514173Y454397D01*
X514210Y454212D01*
X514247Y454008D01*
X514266Y453787D01*
X514275Y453546D01*
Y453537D01*
Y453509D01*
Y453463D01*
Y453408D01*
X514266Y453343D01*
Y453260D01*
X514257Y453167D01*
X514247Y453065D01*
X514220Y452844D01*
X514173Y452603D01*
X514118Y452363D01*
X514044Y452122D01*
Y452113D01*
X514035Y452095D01*
X514016Y452067D01*
X513998Y452021D01*
X513942Y451910D01*
X513859Y451780D01*
X513757Y451632D01*
X513628Y451475D01*
X513480Y451337D01*
X513304Y451207D01*
X513295D01*
X513277Y451198D01*
X513249Y451179D01*
X513212Y451161D01*
X513166Y451142D01*
X513110Y451115D01*
X512981Y451059D01*
X512814Y451004D01*
X512629Y450957D01*
X512426Y450920D01*
X512213Y450911D01*
X512149D01*
X512093Y450920D01*
X512028D01*
X511964Y450930D01*
X511797Y450967D01*
X511603Y451013D01*
X511409Y451087D01*
X511206Y451189D01*
X511104Y451244D01*
X511011Y451318D01*
X511002Y451327D01*
X510993Y451337D01*
X510965Y451364D01*
X510928Y451392D01*
X510891Y451438D01*
X510845Y451494D01*
X510789Y451549D01*
X510743Y451623D01*
X510688Y451706D01*
X510623Y451799D01*
X510568Y451891D01*
X510512Y452002D01*
X510466Y452122D01*
X510420Y452252D01*
X510373Y452391D01*
X510336Y452538D01*
X509486Y452326D01*
Y452317D01*
X509495Y452280D01*
X509514Y452224D01*
X509541Y452150D01*
X509569Y452067D01*
X509606Y451965D01*
X509652Y451854D01*
X509708Y451734D01*
X509837Y451475D01*
X510004Y451216D01*
X510105Y451087D01*
X510207Y450957D01*
X510318Y450846D01*
X510447Y450736D01*
X510457Y450726D01*
X510475Y450708D01*
X510521Y450689D01*
X510568Y450652D01*
X510642Y450606D01*
X510716Y450560D01*
X510817Y450514D01*
X510919Y450467D01*
X511039Y450412D01*
X511169Y450366D01*
X511307Y450320D01*
X511455Y450273D01*
X511612Y450236D01*
X511779Y450218D01*
X511954Y450199D01*
X512139Y450190D01*
X512241D01*
X512315Y450199D01*
X512398D01*
X512500Y450209D01*
X512611Y450227D01*
X512740Y450246D01*
X513008Y450292D01*
X513286Y450366D01*
X513563Y450467D01*
X513693Y450532D01*
X513822Y450606D01*
X513831Y450615D01*
X513850Y450625D01*
X513887Y450652D01*
X513924Y450689D01*
X513979Y450726D01*
X514044Y450782D01*
X514118Y450846D01*
X514192Y450920D01*
X514266Y451004D01*
X514349Y451087D01*
X514515Y451300D01*
X514673Y451549D01*
X514811Y451827D01*
Y451836D01*
X514830Y451864D01*
X514839Y451910D01*
X514867Y451965D01*
X514885Y452039D01*
X514913Y452132D01*
X514950Y452233D01*
X514978Y452344D01*
X515005Y452464D01*
X515042Y452603D01*
X515089Y452890D01*
X515126Y453213D01*
X515144Y453546D01*
Y450736D01*
Y456810D01*
D02*
G37*
G36*
X525573Y456699D02*
X524649D01*
X522032Y450301D01*
X526944D01*
X522994D01*
X523743Y452243D01*
X526424D01*
X527117Y450301D01*
X528014D01*
X525573Y456699D01*
D02*
G37*
G36*
X521348D02*
X518889D01*
X518722Y456690D01*
X518537Y456680D01*
X518352Y456662D01*
X518167Y456634D01*
X518010Y456606D01*
X518001D01*
X517983Y456597D01*
X517955D01*
X517918Y456579D01*
X517816Y456551D01*
X517687Y456505D01*
X517539Y456440D01*
X517382Y456357D01*
X517225Y456264D01*
X517076Y456144D01*
X517067Y456135D01*
X517058Y456126D01*
X517030Y456098D01*
X516993Y456070D01*
X516901Y455978D01*
X516790Y455848D01*
X516670Y455691D01*
X516540Y455506D01*
X516420Y455294D01*
X516318Y455053D01*
Y455044D01*
X516309Y455025D01*
X516291Y454989D01*
X516281Y454933D01*
X516254Y454868D01*
X516235Y454794D01*
X516217Y454711D01*
X516189Y454609D01*
X516161Y454508D01*
X516143Y454388D01*
X516096Y454129D01*
X516069Y453842D01*
X516059Y453528D01*
Y453408D01*
X516069Y453343D01*
Y453269D01*
X516078Y453093D01*
X516106Y452890D01*
X516133Y452677D01*
X516180Y452455D01*
X516235Y452233D01*
Y452224D01*
X516244Y452206D01*
X516254Y452178D01*
X516263Y452141D01*
X516300Y452039D01*
X516355Y451910D01*
X516411Y451762D01*
X516485Y451614D01*
X516577Y451457D01*
X516670Y451309D01*
X516679Y451290D01*
X516716Y451244D01*
X516771Y451179D01*
X516845Y451096D01*
X516929Y451004D01*
X517030Y450911D01*
X517132Y450810D01*
X517252Y450726D01*
X517271Y450717D01*
X517308Y450689D01*
X517372Y450652D01*
X517465Y450606D01*
X517576Y450551D01*
X517705Y450504D01*
X517853Y450449D01*
X518020Y450403D01*
X518038D01*
X518066Y450393D01*
X518094Y450384D01*
X518186Y450375D01*
X518315Y450356D01*
X518463Y450338D01*
X518639Y450320D01*
X518833Y450310D01*
X519046Y450301D01*
X516059D01*
X521348D01*
Y456699D01*
D02*
G37*
G36*
X512139Y450190D02*
X509486D01*
X512139D01*
D01*
D02*
G37*
%LPD*%
G36*
X525130Y456024D02*
X525139Y456006D01*
Y455969D01*
X525157Y455932D01*
X525166Y455867D01*
X525185Y455802D01*
X525222Y455645D01*
X525268Y455460D01*
X525333Y455257D01*
X525398Y455035D01*
X525481Y454804D01*
X526174Y452936D01*
X524011D01*
X524676Y454693D01*
Y454702D01*
X524686Y454730D01*
X524704Y454776D01*
X524723Y454831D01*
X524750Y454896D01*
X524778Y454979D01*
X524806Y455072D01*
X524843Y455164D01*
X524917Y455377D01*
X524991Y455599D01*
X525065Y455821D01*
X525130Y456033D01*
Y456024D01*
D02*
G37*
G36*
X520497Y451059D02*
X518981D01*
X518916Y451068D01*
X518778Y451078D01*
X518621Y451087D01*
X518454Y451105D01*
X518288Y451133D01*
X518149Y451170D01*
X518130Y451179D01*
X518084Y451189D01*
X518020Y451216D01*
X517936Y451253D01*
X517844Y451309D01*
X517752Y451364D01*
X517659Y451429D01*
X517567Y451503D01*
X517557Y451521D01*
X517520Y451558D01*
X517465Y451623D01*
X517400Y451716D01*
X517326Y451836D01*
X517243Y451974D01*
X517169Y452132D01*
X517104Y452307D01*
Y452317D01*
X517095Y452335D01*
X517086Y452363D01*
X517076Y452400D01*
X517067Y452446D01*
X517049Y452511D01*
X517030Y452575D01*
X517012Y452649D01*
X516984Y452834D01*
X516956Y453047D01*
X516938Y453287D01*
X516929Y453546D01*
Y453555D01*
Y453592D01*
Y453639D01*
X516938Y453713D01*
Y453796D01*
X516947Y453888D01*
X516956Y453999D01*
X516966Y454110D01*
X517012Y454360D01*
X517067Y454619D01*
X517150Y454859D01*
X517206Y454979D01*
X517261Y455081D01*
Y455090D01*
X517280Y455109D01*
X517298Y455136D01*
X517317Y455173D01*
X517391Y455266D01*
X517483Y455377D01*
X517603Y455497D01*
X517742Y455617D01*
X517899Y455719D01*
X518066Y455802D01*
X518084Y455811D01*
X518130Y455821D01*
X518214Y455848D01*
X518334Y455876D01*
X518482Y455895D01*
X518667Y455922D01*
X518778Y455932D01*
X518898D01*
X519018Y455941D01*
X520497D01*
Y451059D01*
D02*
G37*
%LPC*%
G36*
X503793Y562363D02*
X500306D01*
X502924D01*
X499568Y557333D01*
Y562363D01*
X498754D01*
Y555965D01*
X499632D01*
X502979Y560985D01*
Y555965D01*
X503793D01*
Y562363D01*
D02*
G37*
G36*
X510958Y562474D02*
X507639D01*
X507584Y562465D01*
X507510D01*
X507334Y562446D01*
X507140Y562419D01*
X506936Y562372D01*
X506715Y562317D01*
X506502Y562243D01*
X506493D01*
X506474Y562234D01*
X506446Y562225D01*
X506409Y562206D01*
X506308Y562150D01*
X506178Y562086D01*
X506040Y561993D01*
X505892Y561882D01*
X505753Y561762D01*
X505624Y561614D01*
X505605Y561596D01*
X505568Y561540D01*
X505513Y561457D01*
X505439Y561337D01*
X505365Y561189D01*
X505281Y561004D01*
X505198Y560801D01*
X505134Y560569D01*
X505901Y560366D01*
Y560375D01*
X505910Y560385D01*
X505919Y560412D01*
X505929Y560449D01*
X505956Y560532D01*
X505993Y560644D01*
X506049Y560773D01*
X506114Y560893D01*
X506178Y561022D01*
X506261Y561133D01*
X506271Y561143D01*
X506298Y561180D01*
X506354Y561226D01*
X506419Y561291D01*
X506502Y561365D01*
X506613Y561439D01*
X506733Y561512D01*
X506872Y561577D01*
X506890Y561586D01*
X506936Y561605D01*
X507020Y561633D01*
X507131Y561670D01*
X507260Y561698D01*
X507408Y561725D01*
X507574Y561744D01*
X507750Y561753D01*
X507852D01*
X507898Y561744D01*
X507953D01*
X508092Y561734D01*
X508249Y561707D01*
X508425Y561679D01*
X508591Y561633D01*
X508758Y561568D01*
X508776Y561559D01*
X508832Y561540D01*
X508906Y561494D01*
X508998Y561448D01*
X509109Y561374D01*
X509229Y561300D01*
X509340Y561207D01*
X509442Y561106D01*
X509451Y561096D01*
X509488Y561059D01*
X509534Y560995D01*
X509590Y560921D01*
X509655Y560828D01*
X509719Y560717D01*
X509784Y560597D01*
X509849Y560468D01*
Y560458D01*
X509858Y560440D01*
X509867Y560412D01*
X509886Y560366D01*
X509904Y560311D01*
X509923Y560246D01*
X509950Y560172D01*
X509969Y560089D01*
X510015Y559895D01*
X510052Y559673D01*
X510080Y559441D01*
X510089Y559183D01*
Y559173D01*
Y559146D01*
Y559099D01*
X510080Y559044D01*
Y558970D01*
X510071Y558877D01*
X510061Y558785D01*
X510052Y558683D01*
X510015Y558452D01*
X509969Y558212D01*
X509895Y557971D01*
X509803Y557740D01*
Y557731D01*
X509784Y557713D01*
X509775Y557685D01*
X509747Y557648D01*
X509682Y557546D01*
X509581Y557417D01*
X509460Y557278D01*
X509313Y557139D01*
X509137Y557010D01*
X508943Y556890D01*
X508933D01*
X508915Y556880D01*
X508887Y556862D01*
X508841Y556843D01*
X508795Y556825D01*
X508730Y556806D01*
X508582Y556751D01*
X508397Y556705D01*
X508194Y556659D01*
X507972Y556622D01*
X507741Y556612D01*
X507648D01*
X507593Y556622D01*
X507537D01*
X507399Y556640D01*
X507232Y556659D01*
X507057Y556696D01*
X506862Y556751D01*
X506668Y556816D01*
X506659D01*
X506641Y556825D01*
X506622Y556834D01*
X506585Y556853D01*
X506483Y556899D01*
X506372Y556954D01*
X506243Y557019D01*
X506104Y557093D01*
X505975Y557176D01*
X505864Y557269D01*
Y558471D01*
X507750D01*
Y559229D01*
X505032D01*
Y556853D01*
X505041Y556843D01*
X505060Y556834D01*
X505097Y556806D01*
X505143Y556769D01*
X505198Y556733D01*
X505263Y556686D01*
X505346Y556631D01*
X505429Y556575D01*
X505624Y556455D01*
X505845Y556326D01*
X506077Y556206D01*
X506326Y556104D01*
X506335D01*
X506354Y556095D01*
X506391Y556085D01*
X506437Y556067D01*
X506502Y556048D01*
X506576Y556021D01*
X506659Y556002D01*
X506742Y555984D01*
X506946Y555937D01*
X507177Y555891D01*
X507426Y555863D01*
X507685Y555854D01*
X507778D01*
X507842Y555863D01*
X507926D01*
X508027Y555873D01*
X508138Y555891D01*
X508259Y555900D01*
X508527Y555956D01*
X508813Y556021D01*
X509109Y556122D01*
X509257Y556178D01*
X509405Y556252D01*
X509414Y556261D01*
X509442Y556270D01*
X509479Y556298D01*
X509534Y556326D01*
X509599Y556372D01*
X509664Y556418D01*
X509840Y556548D01*
X510024Y556714D01*
X510219Y556917D01*
X510404Y557149D01*
X510570Y557417D01*
Y557426D01*
X510588Y557454D01*
X510607Y557491D01*
X510635Y557555D01*
X510662Y557620D01*
X510690Y557713D01*
X510727Y557805D01*
X510764Y557916D01*
X510801Y558036D01*
X510838Y558175D01*
X510866Y558314D01*
X510894Y558461D01*
X510940Y558785D01*
X510958Y559127D01*
Y556548D01*
Y559220D01*
X510949Y559284D01*
Y559368D01*
X510940Y559469D01*
X510921Y559571D01*
X510912Y559691D01*
X510884Y559821D01*
X510866Y559959D01*
X510792Y560255D01*
X510699Y560560D01*
X510570Y560865D01*
X510561Y560875D01*
X510551Y560902D01*
X510533Y560939D01*
X510496Y560995D01*
X510459Y561069D01*
X510413Y561143D01*
X510283Y561318D01*
X510126Y561522D01*
X509932Y561716D01*
X509710Y561910D01*
X509581Y561993D01*
X509451Y562076D01*
X509442Y562086D01*
X509414Y562095D01*
X509377Y562113D01*
X509322Y562141D01*
X509248Y562169D01*
X509165Y562206D01*
X509072Y562243D01*
X508961Y562280D01*
X508841Y562317D01*
X508712Y562345D01*
X508573Y562382D01*
X508425Y562409D01*
X508101Y562456D01*
X507935Y562474D01*
X510958D01*
D01*
D02*
G37*
G36*
X497330Y562363D02*
X494871D01*
X494705Y562354D01*
X494520Y562345D01*
X494335Y562326D01*
X494150Y562298D01*
X493993Y562271D01*
X493983D01*
X493965Y562261D01*
X493937D01*
X493900Y562243D01*
X493798Y562215D01*
X493669Y562169D01*
X493521Y562104D01*
X493364Y562021D01*
X493207Y561929D01*
X493059Y561808D01*
X493050Y561799D01*
X493040Y561790D01*
X493013Y561762D01*
X492976Y561734D01*
X492883Y561642D01*
X492772Y561512D01*
X492652Y561355D01*
X492523Y561171D01*
X492402Y560958D01*
X492301Y560717D01*
Y560708D01*
X492291Y560690D01*
X492273Y560653D01*
X492264Y560597D01*
X492236Y560532D01*
X492217Y560458D01*
X492199Y560375D01*
X492171Y560274D01*
X492143Y560172D01*
X492125Y560052D01*
X492079Y559793D01*
X492051Y559506D01*
X492042Y559192D01*
Y559072D01*
X492051Y559007D01*
Y558933D01*
X492060Y558757D01*
X492088Y558554D01*
X492116Y558341D01*
X492162Y558119D01*
X492217Y557897D01*
Y557888D01*
X492227Y557870D01*
X492236Y557842D01*
X492245Y557805D01*
X492282Y557703D01*
X492338Y557574D01*
X492393Y557426D01*
X492467Y557278D01*
X492560Y557121D01*
X492652Y556973D01*
X492661Y556954D01*
X492698Y556908D01*
X492754Y556843D01*
X492828Y556760D01*
X492911Y556668D01*
X493013Y556575D01*
X493114Y556474D01*
X493234Y556390D01*
X493253Y556381D01*
X493290Y556353D01*
X493355Y556316D01*
X493447Y556270D01*
X493558Y556215D01*
X493688Y556169D01*
X493835Y556113D01*
X494002Y556067D01*
X494020D01*
X494048Y556058D01*
X494076Y556048D01*
X494168Y556039D01*
X494298Y556021D01*
X494446Y556002D01*
X494621Y555984D01*
X494815Y555974D01*
X495028Y555965D01*
X492042D01*
Y559072D01*
Y555965D01*
D01*
X497330D01*
Y562363D01*
D02*
G37*
%LPD*%
G36*
X496480Y556723D02*
X494963D01*
X494899Y556733D01*
X494760Y556742D01*
X494603Y556751D01*
X494436Y556769D01*
X494270Y556797D01*
X494131Y556834D01*
X494113Y556843D01*
X494067Y556853D01*
X494002Y556880D01*
X493919Y556917D01*
X493826Y556973D01*
X493734Y557028D01*
X493641Y557093D01*
X493549Y557167D01*
X493540Y557186D01*
X493503Y557223D01*
X493447Y557287D01*
X493382Y557380D01*
X493308Y557500D01*
X493225Y557639D01*
X493151Y557796D01*
X493087Y557971D01*
Y557981D01*
X493077Y557999D01*
X493068Y558027D01*
X493059Y558064D01*
X493050Y558110D01*
X493031Y558175D01*
X493013Y558240D01*
X492994Y558314D01*
X492966Y558498D01*
X492939Y558711D01*
X492920Y558951D01*
X492911Y559210D01*
Y559220D01*
Y559257D01*
Y559303D01*
X492920Y559377D01*
Y559460D01*
X492929Y559552D01*
X492939Y559663D01*
X492948Y559774D01*
X492994Y560024D01*
X493050Y560283D01*
X493133Y560523D01*
X493188Y560644D01*
X493244Y560745D01*
Y560754D01*
X493262Y560773D01*
X493281Y560801D01*
X493299Y560838D01*
X493373Y560930D01*
X493466Y561041D01*
X493586Y561161D01*
X493724Y561281D01*
X493882Y561383D01*
X494048Y561466D01*
X494067Y561476D01*
X494113Y561485D01*
X494196Y561512D01*
X494316Y561540D01*
X494464Y561559D01*
X494649Y561586D01*
X494760Y561596D01*
X494880D01*
X495000Y561605D01*
X496480D01*
Y556723D01*
D02*
G37*
%LPC*%
G36*
X554504Y562310D02*
X554384D01*
X554319Y562301D01*
X554255D01*
X554079Y562282D01*
X553885Y562254D01*
X553681Y562208D01*
X553460Y562153D01*
X553256Y562079D01*
X553247D01*
X553228Y562070D01*
X553201Y562051D01*
X553164Y562033D01*
X553071Y561986D01*
X552951Y561903D01*
X552812Y561811D01*
X552674Y561690D01*
X552544Y561552D01*
X552424Y561395D01*
Y561385D01*
X552415Y561376D01*
X552396Y561348D01*
X552378Y561321D01*
X552332Y561228D01*
X552276Y561108D01*
X552211Y560960D01*
X552165Y560784D01*
X552119Y560600D01*
X552100Y560396D01*
X552914Y560331D01*
Y560341D01*
Y560359D01*
X552923Y560387D01*
X552933Y560433D01*
X552960Y560535D01*
X552997Y560673D01*
X553053Y560821D01*
X553136Y560969D01*
X553238Y561108D01*
X553367Y561237D01*
X553386Y561247D01*
X553432Y561284D01*
X553524Y561339D01*
X553644Y561395D01*
X553802Y561450D01*
X553987Y561506D01*
X554218Y561543D01*
X554477Y561552D01*
X554606D01*
X554661Y561543D01*
X554735Y561533D01*
X554902Y561515D01*
X555087Y561478D01*
X555272Y561432D01*
X555447Y561358D01*
X555521Y561311D01*
X555595Y561265D01*
X555614Y561256D01*
X555651Y561219D01*
X555706Y561154D01*
X555762Y561080D01*
X555826Y560979D01*
X555882Y560868D01*
X555919Y560738D01*
X555937Y560590D01*
Y560572D01*
Y560535D01*
X555928Y560470D01*
X555910Y560396D01*
X555882Y560304D01*
X555836Y560211D01*
X555780Y560119D01*
X555697Y560026D01*
X555688Y560017D01*
X555642Y559989D01*
X555605Y559962D01*
X555568Y559943D01*
X555512Y559915D01*
X555447Y559878D01*
X555364Y559851D01*
X555272Y559814D01*
X555170Y559777D01*
X555050Y559730D01*
X554920Y559693D01*
X554772Y559647D01*
X554606Y559610D01*
X554421Y559564D01*
X554412D01*
X554375Y559555D01*
X554319Y559546D01*
X554255Y559527D01*
X554171Y559509D01*
X554070Y559481D01*
X553968Y559453D01*
X553857Y559425D01*
X553617Y559361D01*
X553386Y559296D01*
X553275Y559259D01*
X553173Y559222D01*
X553080Y559194D01*
X553007Y559157D01*
X552997D01*
X552979Y559148D01*
X552951Y559129D01*
X552914Y559111D01*
X552812Y559055D01*
X552692Y558982D01*
X552553Y558880D01*
X552415Y558769D01*
X552285Y558639D01*
X552174Y558501D01*
X552165Y558482D01*
X552128Y558436D01*
X552091Y558353D01*
X552036Y558242D01*
X551990Y558112D01*
X551943Y557955D01*
X551916Y557780D01*
X551906Y557595D01*
Y557622D01*
Y557511D01*
X551925Y557410D01*
X551943Y557280D01*
X551980Y557132D01*
X552026Y556975D01*
X552100Y556809D01*
X552202Y556633D01*
Y556624D01*
X552211Y556615D01*
X552258Y556559D01*
X552322Y556476D01*
X552415Y556384D01*
X552535Y556273D01*
X552683Y556152D01*
X552849Y556041D01*
X553044Y555940D01*
X553053D01*
X553071Y555930D01*
X553099Y555921D01*
X553136Y555903D01*
X553191Y555884D01*
X553256Y555857D01*
X553404Y555820D01*
X553580Y555773D01*
X553792Y555727D01*
X554024Y555699D01*
X554273Y555690D01*
X551906D01*
D01*
X556991D01*
D01*
X554421D01*
X554495Y555699D01*
X554578D01*
X554671Y555709D01*
X554782Y555718D01*
X555013Y555755D01*
X555253Y555792D01*
X555494Y555857D01*
X555725Y555940D01*
X555734D01*
X555752Y555949D01*
X555780Y555967D01*
X555817Y555986D01*
X555928Y556041D01*
X556058Y556125D01*
X556205Y556236D01*
X556363Y556365D01*
X556511Y556522D01*
X556649Y556698D01*
Y556707D01*
X556668Y556726D01*
X556677Y556753D01*
X556705Y556790D01*
X556723Y556837D01*
X556751Y556892D01*
X556816Y557031D01*
X556880Y557206D01*
X556936Y557401D01*
X556973Y557622D01*
X556991Y557854D01*
X556196Y557928D01*
Y557918D01*
Y557909D01*
X556187Y557881D01*
Y557844D01*
X556169Y557761D01*
X556141Y557641D01*
X556104Y557521D01*
X556067Y557382D01*
X556002Y557253D01*
X555937Y557132D01*
X555928Y557123D01*
X555900Y557086D01*
X555854Y557021D01*
X555780Y556957D01*
X555688Y556874D01*
X555586Y556790D01*
X555447Y556707D01*
X555299Y556633D01*
X555290D01*
X555281Y556624D01*
X555253Y556615D01*
X555225Y556605D01*
X555133Y556578D01*
X555013Y556541D01*
X554865Y556504D01*
X554698Y556476D01*
X554514Y556457D01*
X554310Y556448D01*
X554227D01*
X554134Y556457D01*
X554024Y556467D01*
X553894Y556485D01*
X553746Y556504D01*
X553598Y556541D01*
X553460Y556587D01*
X553441Y556596D01*
X553395Y556615D01*
X553330Y556652D01*
X553247Y556689D01*
X553164Y556753D01*
X553071Y556818D01*
X552979Y556892D01*
X552905Y556984D01*
X552896Y556994D01*
X552877Y557031D01*
X552849Y557077D01*
X552812Y557151D01*
X552775Y557225D01*
X552748Y557317D01*
X552729Y557419D01*
X552720Y557530D01*
Y557539D01*
Y557585D01*
X552729Y557641D01*
X552738Y557715D01*
X552766Y557789D01*
X552794Y557881D01*
X552840Y557974D01*
X552905Y558057D01*
X552914Y558066D01*
X552942Y558094D01*
X552979Y558131D01*
X553044Y558186D01*
X553117Y558242D01*
X553219Y558307D01*
X553339Y558371D01*
X553478Y558427D01*
X553487Y558436D01*
X553534Y558445D01*
X553607Y558473D01*
X553654Y558482D01*
X553718Y558501D01*
X553783Y558529D01*
X553866Y558547D01*
X553959Y558575D01*
X554070Y558602D01*
X554181Y558630D01*
X554310Y558667D01*
X554458Y558704D01*
X554615Y558741D01*
X554624D01*
X554652Y558750D01*
X554698Y558760D01*
X554754Y558778D01*
X554828Y558797D01*
X554911Y558815D01*
X555096Y558871D01*
X555299Y558935D01*
X555512Y559000D01*
X555697Y559065D01*
X555780Y559102D01*
X555854Y559139D01*
X555863D01*
X555873Y559148D01*
X555928Y559185D01*
X556011Y559231D01*
X556104Y559305D01*
X556215Y559388D01*
X556326Y559490D01*
X556437Y559610D01*
X556529Y559740D01*
X556538Y559758D01*
X556566Y559804D01*
X556603Y559878D01*
X556640Y559971D01*
X556677Y560091D01*
X556714Y560230D01*
X556742Y560378D01*
X556751Y560535D01*
Y560544D01*
Y560553D01*
Y560581D01*
Y560618D01*
X556732Y560710D01*
X556714Y560831D01*
X556686Y560969D01*
X556640Y561127D01*
X556575Y561284D01*
X556483Y561441D01*
Y561450D01*
X556474Y561459D01*
X556427Y561515D01*
X556363Y561589D01*
X556279Y561681D01*
X556169Y561783D01*
X556030Y561894D01*
X555863Y561996D01*
X555678Y562088D01*
X555669D01*
X555651Y562097D01*
X555623Y562107D01*
X555586Y562125D01*
X555540Y562144D01*
X555475Y562162D01*
X555336Y562199D01*
X555161Y562236D01*
X554957Y562273D01*
X554745Y562301D01*
X554504Y562310D01*
D02*
G37*
G36*
X550741Y562199D02*
X548282D01*
X548116Y562190D01*
X547931Y562180D01*
X547746Y562162D01*
X547561Y562134D01*
X547404Y562107D01*
X547394D01*
X547376Y562097D01*
X547348D01*
X547311Y562079D01*
X547210Y562051D01*
X547080Y562005D01*
X546932Y561940D01*
X546775Y561857D01*
X546618Y561764D01*
X546470Y561644D01*
X546461Y561635D01*
X546451Y561626D01*
X546424Y561598D01*
X546387Y561570D01*
X546294Y561478D01*
X546183Y561348D01*
X546063Y561191D01*
X545934Y561006D01*
X545813Y560794D01*
X545712Y560553D01*
Y560544D01*
X545703Y560526D01*
X545684Y560489D01*
X545675Y560433D01*
X545647Y560368D01*
X545629Y560294D01*
X545610Y560211D01*
X545582Y560109D01*
X545555Y560008D01*
X545536Y559888D01*
X545490Y559629D01*
X545462Y559342D01*
X545453Y559028D01*
Y558908D01*
X545462Y558843D01*
Y558769D01*
X545471Y558593D01*
X545499Y558390D01*
X545527Y558177D01*
X545573Y557955D01*
X545629Y557733D01*
Y557724D01*
X545638Y557706D01*
X545647Y557678D01*
X545656Y557641D01*
X545693Y557539D01*
X545749Y557410D01*
X545804Y557262D01*
X545878Y557114D01*
X545971Y556957D01*
X546063Y556809D01*
X546072Y556790D01*
X546109Y556744D01*
X546165Y556679D01*
X546239Y556596D01*
X546322Y556504D01*
X546424Y556411D01*
X546525Y556310D01*
X546646Y556226D01*
X546664Y556217D01*
X546701Y556189D01*
X546766Y556152D01*
X546858Y556106D01*
X546969Y556051D01*
X547099Y556004D01*
X547247Y555949D01*
X547413Y555903D01*
X547431D01*
X547459Y555894D01*
X547487Y555884D01*
X547579Y555875D01*
X547709Y555857D01*
X547857Y555838D01*
X548032Y555820D01*
X548227Y555810D01*
X548439Y555801D01*
X545453D01*
Y558908D01*
Y555801D01*
D01*
X550741D01*
Y562199D01*
D02*
G37*
G36*
X542550D02*
X541625D01*
X539009Y555801D01*
X543920D01*
X539970D01*
X540719Y557743D01*
X543400D01*
X544094Y555801D01*
X544991D01*
X542550Y562199D01*
D02*
G37*
%LPD*%
G36*
X549891Y556559D02*
X548374D01*
X548310Y556568D01*
X548171Y556578D01*
X548014Y556587D01*
X547847Y556605D01*
X547681Y556633D01*
X547542Y556670D01*
X547524Y556679D01*
X547478Y556689D01*
X547413Y556716D01*
X547330Y556753D01*
X547237Y556809D01*
X547145Y556864D01*
X547052Y556929D01*
X546960Y557003D01*
X546951Y557021D01*
X546914Y557058D01*
X546858Y557123D01*
X546793Y557216D01*
X546720Y557336D01*
X546636Y557475D01*
X546562Y557632D01*
X546498Y557807D01*
Y557817D01*
X546488Y557835D01*
X546479Y557863D01*
X546470Y557900D01*
X546461Y557946D01*
X546442Y558011D01*
X546424Y558075D01*
X546405Y558149D01*
X546377Y558334D01*
X546350Y558547D01*
X546331Y558787D01*
X546322Y559046D01*
Y559055D01*
Y559092D01*
Y559139D01*
X546331Y559213D01*
Y559296D01*
X546340Y559388D01*
X546350Y559499D01*
X546359Y559610D01*
X546405Y559860D01*
X546461Y560119D01*
X546544Y560359D01*
X546599Y560479D01*
X546655Y560581D01*
Y560590D01*
X546673Y560609D01*
X546692Y560636D01*
X546710Y560673D01*
X546784Y560766D01*
X546877Y560877D01*
X546997Y560997D01*
X547136Y561117D01*
X547293Y561219D01*
X547459Y561302D01*
X547478Y561311D01*
X547524Y561321D01*
X547607Y561348D01*
X547727Y561376D01*
X547875Y561395D01*
X548060Y561422D01*
X548171Y561432D01*
X548291D01*
X548411Y561441D01*
X549891D01*
Y556559D01*
D02*
G37*
G36*
X542106Y561524D02*
X542115Y561506D01*
Y561469D01*
X542134Y561432D01*
X542143Y561367D01*
X542161Y561302D01*
X542198Y561145D01*
X542245Y560960D01*
X542309Y560757D01*
X542374Y560535D01*
X542457Y560304D01*
X543151Y558436D01*
X540987D01*
X541653Y560193D01*
Y560202D01*
X541662Y560230D01*
X541681Y560276D01*
X541699Y560331D01*
X541727Y560396D01*
X541755Y560479D01*
X541782Y560572D01*
X541819Y560664D01*
X541893Y560877D01*
X541967Y561099D01*
X542041Y561321D01*
X542106Y561533D01*
Y561524D01*
D02*
G37*
%LPC*%
G36*
X529848Y562474D02*
X529728D01*
D01*
D01*
D01*
X527250D01*
X529728D01*
X529663Y562465D01*
X529598D01*
X529422Y562446D01*
X529228Y562419D01*
X529025Y562372D01*
X528803Y562317D01*
X528600Y562243D01*
X528590D01*
X528572Y562234D01*
X528544Y562215D01*
X528507Y562197D01*
X528415Y562150D01*
X528295Y562067D01*
X528156Y561975D01*
X528017Y561855D01*
X527888Y561716D01*
X527768Y561559D01*
Y561549D01*
X527758Y561540D01*
X527740Y561512D01*
X527721Y561485D01*
X527675Y561392D01*
X527620Y561272D01*
X527555Y561124D01*
X527509Y560949D01*
X527463Y560764D01*
X527444Y560560D01*
X528258Y560495D01*
Y560505D01*
Y560523D01*
X528267Y560551D01*
X528276Y560597D01*
X528304Y560699D01*
X528341Y560838D01*
X528396Y560985D01*
X528479Y561133D01*
X528581Y561272D01*
X528711Y561402D01*
X528729Y561411D01*
X528775Y561448D01*
X528868Y561503D01*
X528988Y561559D01*
X529145Y561614D01*
X529330Y561670D01*
X529561Y561707D01*
X529820Y561716D01*
X529949D01*
X530005Y561707D01*
X530079Y561698D01*
X530245Y561679D01*
X530430Y561642D01*
X530615Y561596D01*
X530791Y561522D01*
X530865Y561476D01*
X530939Y561429D01*
X530957Y561420D01*
X530994Y561383D01*
X531050Y561318D01*
X531105Y561244D01*
X531170Y561143D01*
X531225Y561032D01*
X531262Y560902D01*
X531281Y560754D01*
Y560736D01*
Y560699D01*
X531272Y560634D01*
X531253Y560560D01*
X531225Y560468D01*
X531179Y560375D01*
X531124Y560283D01*
X531040Y560190D01*
X531031Y560181D01*
X530985Y560153D01*
X530948Y560126D01*
X530911Y560107D01*
X530856Y560079D01*
X530791Y560042D01*
X530708Y560015D01*
X530615Y559978D01*
X530513Y559941D01*
X530393Y559895D01*
X530264Y559858D01*
X530116Y559811D01*
X529949Y559774D01*
X529765Y559728D01*
X529755D01*
X529718Y559719D01*
X529663Y559710D01*
X529598Y559691D01*
X529515Y559673D01*
X529413Y559645D01*
X529312Y559617D01*
X529201Y559590D01*
X528960Y559525D01*
X528729Y559460D01*
X528618Y559423D01*
X528517Y559386D01*
X528424Y559358D01*
X528350Y559321D01*
X528341D01*
X528322Y559312D01*
X528295Y559294D01*
X528258Y559275D01*
X528156Y559220D01*
X528036Y559146D01*
X527897Y559044D01*
X527758Y558933D01*
X527629Y558804D01*
X527518Y558665D01*
X527509Y558646D01*
X527472Y558600D01*
X527435Y558517D01*
X527379Y558406D01*
X527333Y558277D01*
X527287Y558119D01*
X527259Y557944D01*
X527250Y557759D01*
Y557787D01*
Y557676D01*
X527268Y557574D01*
X527287Y557444D01*
X527324Y557296D01*
X527370Y557139D01*
X527444Y556973D01*
X527546Y556797D01*
Y556788D01*
X527555Y556779D01*
X527601Y556723D01*
X527666Y556640D01*
X527758Y556548D01*
X527878Y556437D01*
X528027Y556316D01*
X528193Y556206D01*
X528387Y556104D01*
X528396D01*
X528415Y556095D01*
X528442Y556085D01*
X528479Y556067D01*
X528535Y556048D01*
X528600Y556021D01*
X528748Y555984D01*
X528923Y555937D01*
X529136Y555891D01*
X529367Y555863D01*
X529617Y555854D01*
X529765D01*
X529839Y555863D01*
X529922D01*
X530014Y555873D01*
X530125Y555882D01*
X530356Y555919D01*
X530597Y555956D01*
X530837Y556021D01*
X531068Y556104D01*
X531077D01*
X531096Y556113D01*
X531124Y556132D01*
X531161Y556150D01*
X531272Y556206D01*
X531401Y556289D01*
X531549Y556400D01*
X531706Y556529D01*
X531854Y556686D01*
X531993Y556862D01*
Y556871D01*
X532011Y556890D01*
X532021Y556917D01*
X532048Y556954D01*
X532067Y557001D01*
X532094Y557056D01*
X532159Y557195D01*
X532224Y557370D01*
X532279Y557565D01*
X532316Y557787D01*
X532335Y558018D01*
X531540Y558092D01*
Y558082D01*
Y558073D01*
X531530Y558045D01*
Y558008D01*
X531512Y557925D01*
X531484Y557805D01*
X531447Y557685D01*
X531410Y557546D01*
X531346Y557417D01*
X531281Y557296D01*
X531272Y557287D01*
X531244Y557250D01*
X531198Y557186D01*
X531124Y557121D01*
X531031Y557038D01*
X530930Y556954D01*
X530791Y556871D01*
X530643Y556797D01*
X530634D01*
X530625Y556788D01*
X530597Y556779D01*
X530569Y556769D01*
X530476Y556742D01*
X530356Y556705D01*
X530208Y556668D01*
X530042Y556640D01*
X529857Y556622D01*
X529654Y556612D01*
X529571D01*
X529478Y556622D01*
X529367Y556631D01*
X529238Y556649D01*
X529090Y556668D01*
X528942Y556705D01*
X528803Y556751D01*
X528785Y556760D01*
X528738Y556779D01*
X528674Y556816D01*
X528590Y556853D01*
X528507Y556917D01*
X528415Y556982D01*
X528322Y557056D01*
X528248Y557149D01*
X528239Y557158D01*
X528221Y557195D01*
X528193Y557241D01*
X528156Y557315D01*
X528119Y557389D01*
X528091Y557481D01*
X528073Y557583D01*
X528063Y557694D01*
Y557703D01*
Y557750D01*
X528073Y557805D01*
X528082Y557879D01*
X528110Y557953D01*
X528137Y558045D01*
X528184Y558138D01*
X528248Y558221D01*
X528258Y558230D01*
X528285Y558258D01*
X528322Y558295D01*
X528387Y558350D01*
X528461Y558406D01*
X528563Y558471D01*
X528683Y558535D01*
X528822Y558591D01*
X528831Y558600D01*
X528877Y558609D01*
X528951Y558637D01*
X528997Y558646D01*
X529062Y558665D01*
X529127Y558693D01*
X529210Y558711D01*
X529302Y558739D01*
X529413Y558767D01*
X529524Y558794D01*
X529654Y558831D01*
X529802Y558868D01*
X529959Y558905D01*
X529968D01*
X529996Y558914D01*
X530042Y558924D01*
X530098Y558942D01*
X530171Y558961D01*
X530255Y558979D01*
X530440Y559035D01*
X530643Y559099D01*
X530856Y559164D01*
X531040Y559229D01*
X531124Y559266D01*
X531198Y559303D01*
X531207D01*
X531216Y559312D01*
X531272Y559349D01*
X531355Y559395D01*
X531447Y559469D01*
X531558Y559552D01*
X531669Y559654D01*
X531780Y559774D01*
X531873Y559904D01*
X531882Y559922D01*
X531910Y559968D01*
X531947Y560042D01*
X531984Y560135D01*
X532021Y560255D01*
X532057Y560394D01*
X532085Y560542D01*
X532094Y560699D01*
Y560708D01*
Y560717D01*
Y560745D01*
Y560782D01*
X532076Y560875D01*
X532057Y560995D01*
X532030Y561133D01*
X531984Y561291D01*
X531919Y561448D01*
X531826Y561605D01*
Y561614D01*
X531817Y561623D01*
X531771Y561679D01*
X531706Y561753D01*
X531623Y561845D01*
X531512Y561947D01*
X531373Y562058D01*
X531207Y562160D01*
X531022Y562252D01*
X531013D01*
X530994Y562261D01*
X530967Y562271D01*
X530930Y562289D01*
X530883Y562308D01*
X530819Y562326D01*
X530680Y562363D01*
X530504Y562400D01*
X530301Y562437D01*
X530088Y562465D01*
X529848Y562474D01*
D02*
G37*
G36*
X526334D02*
Y559312D01*
X526325Y559377D01*
Y559469D01*
X526316Y559562D01*
X526307Y559682D01*
X526288Y559802D01*
X526242Y560070D01*
X526177Y560366D01*
X526085Y560662D01*
X525955Y560949D01*
X525946Y560958D01*
X525937Y560985D01*
X525919Y561022D01*
X525882Y561069D01*
X525844Y561133D01*
X525798Y561207D01*
X525678Y561374D01*
X525521Y561559D01*
X525336Y561744D01*
X525123Y561929D01*
X524874Y562086D01*
X524865Y562095D01*
X524837Y562104D01*
X524800Y562123D01*
X524753Y562150D01*
X524679Y562178D01*
X524606Y562206D01*
X524513Y562243D01*
X524411Y562280D01*
X524300Y562317D01*
X524180Y562354D01*
X523921Y562409D01*
X523625Y562456D01*
X523320Y562474D01*
X526334D01*
X520676D01*
X523228D01*
X523163Y562465D01*
X523080Y562456D01*
X522978Y562446D01*
X522877Y562437D01*
X522757Y562409D01*
X522507Y562354D01*
X522229Y562271D01*
X522091Y562215D01*
X521961Y562150D01*
X521832Y562067D01*
X521702Y561984D01*
X521693Y561975D01*
X521675Y561966D01*
X521638Y561938D01*
X521591Y561892D01*
X521545Y561845D01*
X521481Y561781D01*
X521416Y561707D01*
X521342Y561633D01*
X521268Y561540D01*
X521194Y561429D01*
X521111Y561318D01*
X521037Y561198D01*
X520972Y561059D01*
X520898Y560921D01*
X520843Y560773D01*
X520787Y560606D01*
X521619Y560412D01*
Y560422D01*
X521628Y560440D01*
X521647Y560477D01*
X521665Y560523D01*
X521684Y560579D01*
X521712Y560653D01*
X521786Y560801D01*
X521878Y560967D01*
X521989Y561133D01*
X522128Y561291D01*
X522276Y561429D01*
X522294Y561448D01*
X522350Y561485D01*
X522442Y561531D01*
X522562Y561596D01*
X522719Y561651D01*
X522895Y561707D01*
X523108Y561744D01*
X523339Y561753D01*
X523413D01*
X523459Y561744D01*
X523524D01*
X523598Y561734D01*
X523773Y561707D01*
X523968Y561670D01*
X524171Y561605D01*
X524384Y561512D01*
X524578Y561392D01*
X524587D01*
X524596Y561374D01*
X524661Y561328D01*
X524744Y561254D01*
X524846Y561143D01*
X524966Y561004D01*
X525077Y560847D01*
X525179Y560653D01*
X525271Y560440D01*
Y560431D01*
X525280Y560412D01*
X525290Y560385D01*
X525299Y560338D01*
X525317Y560283D01*
X525336Y560218D01*
X525364Y560061D01*
X525401Y559876D01*
X525438Y559673D01*
X525456Y559451D01*
X525465Y559210D01*
Y559201D01*
Y559173D01*
Y559127D01*
Y559072D01*
X525456Y559007D01*
Y558924D01*
X525447Y558831D01*
X525438Y558730D01*
X525410Y558508D01*
X525364Y558267D01*
X525308Y558027D01*
X525234Y557787D01*
Y557777D01*
X525225Y557759D01*
X525206Y557731D01*
X525188Y557685D01*
X525133Y557574D01*
X525049Y557444D01*
X524948Y557296D01*
X524818Y557139D01*
X524670Y557001D01*
X524495Y556871D01*
X524485D01*
X524467Y556862D01*
X524439Y556843D01*
X524402Y556825D01*
X524356Y556806D01*
X524300Y556779D01*
X524171Y556723D01*
X524005Y556668D01*
X523820Y556622D01*
X523616Y556585D01*
X523404Y556575D01*
X523339D01*
X523284Y556585D01*
X523219D01*
X523154Y556594D01*
X522988Y556631D01*
X522793Y556677D01*
X522599Y556751D01*
X522396Y556853D01*
X522294Y556908D01*
X522202Y556982D01*
X522192Y556991D01*
X522183Y557001D01*
X522155Y557028D01*
X522118Y557056D01*
X522081Y557102D01*
X522035Y557158D01*
X521980Y557213D01*
X521934Y557287D01*
X521878Y557370D01*
X521813Y557463D01*
X521758Y557555D01*
X521702Y557666D01*
X521656Y557787D01*
X521610Y557916D01*
X521564Y558055D01*
X521527Y558203D01*
X520676Y557990D01*
Y557981D01*
X520685Y557944D01*
X520704Y557888D01*
X520732Y557814D01*
X520759Y557731D01*
X520796Y557629D01*
X520843Y557518D01*
X520898Y557398D01*
X521027Y557139D01*
X521194Y556880D01*
X521296Y556751D01*
X521397Y556622D01*
X521508Y556511D01*
X521638Y556400D01*
X521647Y556390D01*
X521665Y556372D01*
X521712Y556353D01*
X521758Y556316D01*
X521832Y556270D01*
X521906Y556224D01*
X522008Y556178D01*
X522109Y556132D01*
X522229Y556076D01*
X522359Y556030D01*
X522498Y555984D01*
X522645Y555937D01*
X522803Y555900D01*
X522969Y555882D01*
X523145Y555863D01*
X523330Y555854D01*
X523431D01*
X523505Y555863D01*
X523589D01*
X523690Y555873D01*
X523801Y555891D01*
X523931Y555910D01*
X524199Y555956D01*
X524476Y556030D01*
X524753Y556132D01*
X524883Y556196D01*
X525012Y556270D01*
X525022Y556279D01*
X525040Y556289D01*
X525077Y556316D01*
X525114Y556353D01*
X525170Y556390D01*
X525234Y556446D01*
X525308Y556511D01*
X525382Y556585D01*
X525456Y556668D01*
X525539Y556751D01*
X525706Y556964D01*
X525863Y557213D01*
X526002Y557491D01*
Y557500D01*
X526020Y557528D01*
X526029Y557574D01*
X526057Y557629D01*
X526076Y557703D01*
X526103Y557796D01*
X526140Y557897D01*
X526168Y558008D01*
X526196Y558129D01*
X526233Y558267D01*
X526279Y558554D01*
X526316Y558877D01*
X526334Y559210D01*
Y556437D01*
Y562474D01*
D02*
G37*
G36*
X519668Y562363D02*
X515665D01*
D01*
X518818D01*
Y556723D01*
X515665D01*
Y555965D01*
X519668D01*
Y562363D01*
D02*
G37*
G36*
X523330Y555854D02*
X520676D01*
X523330D01*
D01*
D02*
G37*
G36*
X481238Y562363D02*
X476403D01*
X478723D01*
X478658Y562354D01*
X478585D01*
X478418Y562335D01*
X478233Y562317D01*
X478039Y562280D01*
X477845Y562234D01*
X477669Y562169D01*
X477660D01*
X477651Y562160D01*
X477595Y562132D01*
X477512Y562086D01*
X477420Y562021D01*
X477309Y561938D01*
X477188Y561836D01*
X477077Y561707D01*
X476976Y561568D01*
X476967Y561549D01*
X476939Y561494D01*
X476893Y561420D01*
X476846Y561309D01*
X476800Y561180D01*
X476754Y561041D01*
X476726Y560884D01*
X476717Y560727D01*
Y560708D01*
Y560662D01*
X476726Y560579D01*
X476745Y560477D01*
X476772Y560357D01*
X476819Y560227D01*
X476874Y560098D01*
X476948Y559959D01*
X476957Y559941D01*
X476985Y559904D01*
X477040Y559830D01*
X477114Y559756D01*
X477207Y559663D01*
X477318Y559562D01*
X477457Y559469D01*
X477614Y559377D01*
X477604D01*
X477586Y559368D01*
X477558Y559358D01*
X477521Y559340D01*
X477410Y559303D01*
X477281Y559238D01*
X477142Y559155D01*
X476985Y559053D01*
X476846Y558933D01*
X476717Y558785D01*
X476708Y558767D01*
X476671Y558711D01*
X476615Y558628D01*
X476560Y558517D01*
X476504Y558369D01*
X476449Y558212D01*
X476412Y558027D01*
X476403Y557823D01*
D01*
Y557750D01*
X476412Y557657D01*
X476430Y557546D01*
X476449Y557417D01*
X476486Y557278D01*
X476532Y557130D01*
X476597Y556982D01*
X476606Y556964D01*
X476634Y556917D01*
X476671Y556853D01*
X476726Y556760D01*
X476800Y556668D01*
X476874Y556566D01*
X476967Y556464D01*
X477068Y556381D01*
X477077Y556372D01*
X477114Y556344D01*
X477179Y556307D01*
X477262Y556270D01*
X477364Y556215D01*
X477484Y556159D01*
X477614Y556113D01*
X477771Y556067D01*
X477789D01*
X477845Y556048D01*
X477937Y556039D01*
X478058Y556021D01*
X478205Y556002D01*
X478381Y555984D01*
X478575Y555974D01*
X478797Y555965D01*
X481238D01*
Y562363D01*
D02*
G37*
G36*
X487830D02*
X486906D01*
X485241Y557713D01*
Y557703D01*
X485232Y557685D01*
X485223Y557657D01*
X485204Y557620D01*
X485195Y557565D01*
X485177Y557509D01*
X485130Y557370D01*
X485075Y557213D01*
X485019Y557038D01*
X484908Y556668D01*
Y556677D01*
X484899Y556696D01*
X484890Y556723D01*
X484881Y556760D01*
X484853Y556862D01*
X484807Y557001D01*
X484761Y557158D01*
X484705Y557333D01*
X484640Y557518D01*
X484566Y557713D01*
X482828Y562363D01*
X482982D01*
X481968D01*
X484465Y555965D01*
X481968D01*
X487830D01*
X485352D01*
X487830Y562363D01*
D02*
G37*
G36*
X473499D02*
X472575D01*
X469958Y555965D01*
X474870D01*
X470920D01*
X471669Y557907D01*
X474350D01*
X475043Y555965D01*
X475940D01*
X473499Y562363D01*
D02*
G37*
G36*
X469755D02*
X464688D01*
Y561605D01*
X466796D01*
Y555965D01*
X469755D01*
Y562363D01*
D02*
G37*
%LPD*%
G36*
X480387Y559682D02*
X478816D01*
X478695Y559691D01*
X478566Y559700D01*
X478437Y559710D01*
X478307Y559728D01*
X478205Y559747D01*
X478187Y559756D01*
X478150Y559765D01*
X478094Y559793D01*
X478021Y559830D01*
X477947Y559867D01*
X477863Y559922D01*
X477780Y559996D01*
X477715Y560070D01*
X477706Y560079D01*
X477688Y560107D01*
X477660Y560163D01*
X477632Y560227D01*
X477604Y560301D01*
X477577Y560394D01*
X477558Y560505D01*
X477549Y560625D01*
Y560644D01*
Y560680D01*
X477558Y560736D01*
X477567Y560810D01*
X477586Y560902D01*
X477614Y560995D01*
X477651Y561087D01*
X477706Y561180D01*
X477715Y561189D01*
X477734Y561217D01*
X477771Y561263D01*
X477817Y561309D01*
X477882Y561365D01*
X477956Y561420D01*
X478048Y561476D01*
X478150Y561512D01*
X478159D01*
X478205Y561531D01*
X478270Y561540D01*
X478372Y561559D01*
X478511Y561577D01*
X478668Y561586D01*
X478871Y561605D01*
X480387D01*
Y559682D01*
D02*
G37*
G36*
Y556723D02*
X478566D01*
X478372Y556733D01*
X478289Y556742D01*
X478215Y556751D01*
X478205D01*
X478168Y556760D01*
X478113Y556769D01*
X478048Y556788D01*
X477891Y556843D01*
X477734Y556917D01*
X477725Y556927D01*
X477697Y556945D01*
X477660Y556973D01*
X477614Y557010D01*
X477567Y557065D01*
X477503Y557121D01*
X477457Y557195D01*
X477401Y557278D01*
X477392Y557287D01*
X477383Y557315D01*
X477364Y557370D01*
X477336Y557435D01*
X477309Y557509D01*
X477290Y557602D01*
X477281Y557713D01*
X477272Y557823D01*
Y557842D01*
Y557879D01*
X477281Y557953D01*
X477299Y558036D01*
X477318Y558129D01*
X477355Y558230D01*
X477401Y558332D01*
X477466Y558434D01*
X477475Y558443D01*
X477503Y558480D01*
X477540Y558526D01*
X477595Y558582D01*
X477669Y558646D01*
X477762Y558711D01*
X477863Y558767D01*
X477984Y558813D01*
X478002Y558822D01*
X478039Y558831D01*
X478122Y558850D01*
X478224Y558868D01*
X478353Y558887D01*
X478511Y558905D01*
X478705Y558924D01*
X480387D01*
Y556723D01*
D02*
G37*
G36*
X473056Y561688D02*
X473065Y561670D01*
Y561633D01*
X473083Y561596D01*
X473093Y561531D01*
X473111Y561466D01*
X473148Y561309D01*
X473194Y561124D01*
X473259Y560921D01*
X473324Y560699D01*
X473407Y560468D01*
X474100Y558600D01*
X471937D01*
X472603Y560357D01*
Y560366D01*
X472612Y560394D01*
X472630Y560440D01*
X472649Y560495D01*
X472677Y560560D01*
X472704Y560644D01*
X472732Y560736D01*
X472769Y560828D01*
X472843Y561041D01*
X472917Y561263D01*
X472991Y561485D01*
X473056Y561698D01*
Y561688D01*
D02*
G37*
G36*
X469755Y555965D02*
X467647D01*
Y561605D01*
X469755D01*
Y555965D01*
D02*
G37*
%LPC*%
G36*
X433972Y505305D02*
Y501824D01*
X430491D01*
Y505305D01*
X433972D01*
X429009D01*
Y501824D01*
X425528D01*
Y500361D01*
X429009D01*
Y496843D01*
X425528D01*
X430491D01*
Y500361D01*
X433972D01*
D01*
Y505305D01*
D02*
G37*
%LPD*%
D10*
X485648Y368884D02*
G03*
X485648Y368910I1500J13D01*
G01*
D11*
X377196Y237998D02*
G03*
X377196Y237998I-15500J0D01*
G01*
X424246Y255978D02*
X464246D01*
X424246Y306378D02*
X464246D01*
X616660Y329530D02*
Y331830D01*
Y402230D02*
Y404530D01*
Y329530D02*
X635160D01*
X616660Y404530D02*
X635160D01*
D12*
X400796Y256228D02*
G03*
X400796Y256228I-1000J0D01*
G01*
X448906Y476504D02*
G03*
X448906Y476504I-1000J0D01*
G01*
X605160Y380030D02*
G03*
X605160Y380030I-1000J0D01*
G01*
X393700Y571754D02*
X439166D01*
X382778Y556260D02*
Y560578D01*
X449834Y556260D02*
Y560578D01*
X403352Y545846D02*
X415036D01*
X380414Y315688D02*
X402414D01*
X380414Y279688D02*
Y315688D01*
Y279688D02*
X402414D01*
Y315688D01*
X414450Y379764D02*
Y415764D01*
X436450D01*
Y379764D02*
Y415764D01*
X414450Y379764D02*
X436450D01*
X505748Y409116D02*
Y431116D01*
Y409116D02*
X541748D01*
Y431116D01*
X505748D02*
X541748D01*
X563372Y444754D02*
Y483870D01*
X541274Y444754D02*
X563372D01*
X541274D02*
Y483870D01*
X563372D01*
X585470Y444754D02*
Y483870D01*
X563372Y444754D02*
X585470D01*
X563372D02*
Y483870D01*
X585470D01*
X621504Y408608D02*
Y430608D01*
X585504D02*
X621504D01*
X585504Y408608D02*
Y430608D01*
Y408608D02*
X621504D01*
X563548Y408720D02*
X585548D01*
Y444720D01*
X563548D02*
X585548D01*
X563548Y408720D02*
Y444720D01*
X483538Y373160D02*
X505538D01*
Y409160D01*
X483538D02*
X505538D01*
X483538Y373160D02*
Y409160D01*
X505636Y373160D02*
Y409160D01*
X527636D01*
Y373160D02*
Y409160D01*
X505636Y373160D02*
X527636D01*
X541450Y408720D02*
X563450D01*
Y444720D01*
X541450D02*
X563450D01*
X541450Y408720D02*
Y444720D01*
X548928Y307262D02*
Y329262D01*
Y307262D02*
X584928D01*
Y329262D01*
X548928D02*
X584928D01*
X390906Y464059D02*
X441706D01*
Y488949D01*
X390906D02*
X441706D01*
X390906Y464059D02*
Y488949D01*
D76*
X584561Y376174D02*
G03*
X584561Y360172I3753J-8001D01*
G01*
X591563Y343172D02*
G03*
X591563Y343172I-1702J0D01*
G01*
X474472Y408687D02*
G03*
X474472Y408687I-1270J0D01*
G01*
X452374Y366538D02*
G03*
X466852Y366538I7239J0D01*
G01*
X534060Y388673D02*
X585061D01*
X534063Y347673D02*
Y388673D01*
Y347673D02*
X585064D01*
X585061Y376174D02*
Y388673D01*
Y347673D02*
Y360172D01*
X450232Y376678D02*
X468232D01*
X450232Y407678D02*
X468232D01*
X481076Y336536D02*
Y366538D01*
X438404Y336536D02*
X481076D01*
X438404Y336907D02*
Y366536D01*
Y366538D02*
X452374D01*
X467106D02*
X481076D01*
M02*
